<svg id="Layer_1" data-name="Layer 1" xmlns="http://www.w3.org/2000/svg" viewBox="0 0 382.1 382"><path d="M347.4,0H34.6A34.61,34.61,0,0,0,0,34.6V347.5A34.59,34.59,0,0,0,34.6,382H347.5a34.61,34.61,0,0,0,34.6-34.6V34.6A34.76,34.76,0,0,0,347.4,0ZM118.2,329.8a10.07,10.07,0,0,1-10.1,10.1H65.3a10.07,10.07,0,0,1-10.1-10.1V150.4a10.07,10.07,0,0,1,10.1-10.1h42.8a10.07,10.07,0,0,1,10.1,10.1ZM86.7,123.4a40.7,40.7,0,1,1,40.7-40.7A40.67,40.67,0,0,1,86.7,123.4ZM341.9,330.7a9.18,9.18,0,0,1-9.2,9.2H286.8a9.18,9.18,0,0,1-9.2-9.2V246.5c0-12.6,3.7-55-32.8-55-28.3,0-34.1,29.1-35.2,42.1v97.1a9.18,9.18,0,0,1-9.2,9.2H156a9.18,9.18,0,0,1-9.2-9.2V149.6a9.18,9.18,0,0,1,9.2-9.2h44.4a9.18,9.18,0,0,1,9.2,9.2v15.7c10.5-15.8,26.1-27.9,59.3-27.9,73.6,0,73.1,68.7,73.1,106.5l-.1,86.8Z" style="fill:#48a9a6"/></svg>