<svg id="svg7353" xmlns="http://www.w3.org/2000/svg" viewBox="0 0 37.74 44.13"><path id="path12162" d="M38.77,21c3.74,5.09,4.37,9.07,2.51,12.34C38.21,38.69,29.32,38.07,28,31c-.29-1.56-1.71-1.29-1.32.4h0a17.67,17.67,0,0,0,4.28,12c-4.23,0-8.45-.06-12.2-.09a18.38,18.38,0,0,0,4.64-12h0c.19-1.75-.91-1.95-1.32-.41-1.77,6.68-10.37,7.66-13.34,2.23-1.81-3.3-1.29-7.43,2.57-12.44C18.55,11.35,23.82,6,25.19,2.48,26.49,6,32.12,11.92,38.77,21Z" transform="translate(-6.13 -0.9)" style="fill:#48a9a6;stroke:#48a9a6;stroke-linejoin:round;stroke-width:3.155820761507682px"/></svg>