<svg id="svg7353" xmlns="http://www.w3.org/2000/svg" viewBox="0 0 36.41 43.47"><path id="path12162" d="M38.84,21C42.51,26.05,43.12,30,41.3,33.3a7,7,0,0,1-13-2.28c-.29-1.56-1.67-1.29-1.3.4h0a18,18,0,0,0,4.2,12c-4.14,0-8.28-.06-12-.09a18.57,18.57,0,0,0,4.55-12h0c.19-1.75-.89-1.95-1.29-.41-1.73,6.68-10.17,7.66-13.08,2.23-1.77-3.3-1.27-7.43,2.52-12.44C19,11.35,24.19,6,25.52,2.48,26.8,6,32.32,11.92,38.84,21Z" transform="translate(-7.14 -1.23)" style="fill:none;stroke:#48a9a6;stroke-linejoin:round;stroke-width:2.5px"/></svg>