<svg id="svg3427" xmlns="http://www.w3.org/2000/svg" viewBox="0 0 43 43"><g id="layer1"><path id="path3395" d="M23.42,5a8.8,8.8,0,0,0-8.57,9c0,3.13,1.65,5.77,3.33,8.28A10.33,10.33,0,0,0,12,20a8.8,8.8,0,0,0-8.57,9A8.8,8.8,0,0,0,12,38c3.83-.06,6.9-2.74,9.91-5-.54,6.73-1.63,10.52-8,12h19c-6.37-1.48-7.46-5.27-8-12,3,2.55,6.1,4.72,9.91,5a8.8,8.8,0,0,0,8.57-9,8.8,8.8,0,0,0-8.57-9,11.57,11.57,0,0,0-6.19,2.28A14.84,14.84,0,0,0,32,14,8.8,8.8,0,0,0,23.42,5Z" transform="translate(-1.92 -3.46)" style="fill:#48a9a6;stroke:#48a9a6;stroke-linejoin:round;stroke-width:3px"/></g></svg>