<svg xmlns="http://www.w3.org/2000/svg" viewBox="0 0 558.92 542.7"><g id="menu"><path d="M30.56,217.93H27.63v-6.09H21.91v6.09H19V203.71h2.93v5.77h5.72v-5.77h2.93Z" transform="translate(-12.61 -34.95)" style="fill:#eb5e55"/><path d="M32.91,204.63a1.39,1.39,0,0,1,.42-1,1.58,1.58,0,0,1,1.16-.41,1.56,1.56,0,0,1,1.15.41,1.36,1.36,0,0,1,.43,1,1.4,1.4,0,0,1-.43,1.06,1.62,1.62,0,0,1-1.15.41,1.63,1.63,0,0,1-1.15-.41A1.4,1.4,0,0,1,32.91,204.63Zm3,13.3H33.08V207.37h2.83Z" transform="translate(-12.61 -34.95)" style="fill:#eb5e55"/><path d="M39,221.5l-1.47-.77.35-.64a5,5,0,0,0,.67-2.37v-2.19H40.9v1.95a5.07,5.07,0,0,1-.55,2.19A5.59,5.59,0,0,1,39,221.5Z" transform="translate(-12.61 -34.95)" style="fill:#eb5e55"/><path d="M59.53,216.14a5.1,5.1,0,0,1-2.24,1.47,9.54,9.54,0,0,1-3.2.52,6.34,6.34,0,0,1-3.24-.81A5.3,5.3,0,0,1,48.71,215a8.09,8.09,0,0,1-.78-3.6v-1a8.69,8.69,0,0,1,.72-3.68,5.34,5.34,0,0,1,2.07-2.39,6.84,6.84,0,0,1,7.12.38,5.2,5.2,0,0,1,1.69,3.52H56.68a2.82,2.82,0,0,0-.87-1.79,2.74,2.74,0,0,0-1.84-.57A2.61,2.61,0,0,0,51.7,207a5.88,5.88,0,0,0-.79,3.34v.91a5.6,5.6,0,0,0,.85,3.38,2.9,2.9,0,0,0,2.49,1.14,3.24,3.24,0,0,0,2.35-.7v-2.45H53.93v-2.16h5.6Z" transform="translate(-12.61 -34.95)" style="fill:#f6b134"/><path d="M68.05,216.86a3.56,3.56,0,0,1-2.89,1.27,3.36,3.36,0,0,1-2.6-1,4.17,4.17,0,0,1-.91-2.86v-6.92h2.82v6.83c0,1.1.5,1.65,1.51,1.65a2,2,0,0,0,2-1v-7.49h2.83v10.56H68.12Z" transform="translate(-12.61 -34.95)" style="fill:#f6b134"/><path d="M77.77,218.13A5.18,5.18,0,0,1,74,216.7a5,5,0,0,1-1.46-3.8v-.27a6.41,6.41,0,0,1,.61-2.85,4.49,4.49,0,0,1,1.75-1.93,4.91,4.91,0,0,1,2.57-.68,4.38,4.38,0,0,1,3.41,1.37,5.55,5.55,0,0,1,1.25,3.88v1.15H75.39a2.66,2.66,0,0,0,.82,1.66,2.53,2.53,0,0,0,1.75.62,3.06,3.06,0,0,0,2.55-1.18l1.38,1.55a4.22,4.22,0,0,1-1.72,1.41A5.69,5.69,0,0,1,77.77,218.13Zm-.32-8.68a1.76,1.76,0,0,0-1.36.57,2.91,2.91,0,0,0-.67,1.62h3.92v-.22a2.11,2.11,0,0,0-.5-1.46A1.84,1.84,0,0,0,77.45,209.45Z" transform="translate(-12.61 -34.95)" style="fill:#f6b134"/><path d="M89.44,215a.91.91,0,0,0-.51-.81,5.56,5.56,0,0,0-1.65-.53q-3.77-.79-3.77-3.21a2.9,2.9,0,0,1,1.17-2.35,4.71,4.71,0,0,1,3-.94,5.08,5.08,0,0,1,3.22,1,3,3,0,0,1,1.21,2.46H89.33a1.33,1.33,0,0,0-.39-1,1.62,1.62,0,0,0-1.22-.4,1.72,1.72,0,0,0-1.1.32,1,1,0,0,0-.39.83.87.87,0,0,0,.44.75,4.68,4.68,0,0,0,1.5.5,12.8,12.8,0,0,1,1.78.47,2.93,2.93,0,0,1,2.24,2.85A2.75,2.75,0,0,1,91,217.23a5.35,5.35,0,0,1-3.21.9,5.56,5.56,0,0,1-2.36-.48,3.91,3.91,0,0,1-1.61-1.29,3,3,0,0,1-.59-1.79h2.68a1.47,1.47,0,0,0,.56,1.16,2.22,2.22,0,0,0,1.38.4,2.1,2.1,0,0,0,1.23-.31A1,1,0,0,0,89.44,215Z" transform="translate(-12.61 -34.95)" style="fill:#f6b134"/><path d="M97.38,204.77v2.6h1.81v2.07H97.38v5.27a1.26,1.26,0,0,0,.23.84,1.12,1.12,0,0,0,.86.25,5.21,5.21,0,0,0,.83-.06v2.13a5.86,5.86,0,0,1-1.71.26q-3,0-3-3v-5.69H93v-2.07h1.54v-2.6Z" transform="translate(-12.61 -34.95)" style="fill:#f6b134"/><path d="M60.7,281.82H57.77v-6.09H52.05v6.09H49.12V267.6h2.93v5.76h5.72V267.6H60.7Z" transform="translate(-12.61 -34.95)" style="fill:#f6ae2d"/><path d="M62.63,276.44a6.17,6.17,0,0,1,.61-2.8A4.41,4.41,0,0,1,65,271.73a5.08,5.08,0,0,1,2.64-.67,4.77,4.77,0,0,1,3.49,1.31,5.22,5.22,0,0,1,1.51,3.55l0,.72a5.51,5.51,0,0,1-1.36,3.91,5.25,5.25,0,0,1-7.29,0,5.6,5.6,0,0,1-1.36-4Zm2.82.2a3.92,3.92,0,0,0,.57,2.3,1.88,1.88,0,0,0,1.62.8,1.86,1.86,0,0,0,1.6-.79,4.26,4.26,0,0,0,.58-2.52,3.84,3.84,0,0,0-.58-2.28,2,2,0,0,0-3.22,0A4.38,4.38,0,0,0,65.45,276.64Z" transform="translate(-12.61 -34.95)" style="fill:#f6ae2d"/><path d="M77,271.25l.09,1.19a3.71,3.71,0,0,1,3-1.38,2.82,2.82,0,0,1,2.8,1.61,3.64,3.64,0,0,1,3.18-1.61,3.12,3.12,0,0,1,2.55,1,4.6,4.6,0,0,1,.84,3v6.75H86.69v-6.74a2,2,0,0,0-.35-1.31,1.54,1.54,0,0,0-1.24-.42,1.77,1.77,0,0,0-1.76,1.21v7.26H80.53v-6.73a2,2,0,0,0-.36-1.33,1.58,1.58,0,0,0-1.23-.41,1.84,1.84,0,0,0-1.74,1v7.47H74.38V271.25Z" transform="translate(-12.61 -34.95)" style="fill:#f6ae2d"/><path d="M96.56,282a5.22,5.22,0,0,1-3.79-1.43,5.09,5.09,0,0,1-1.46-3.8v-.27a6.42,6.42,0,0,1,.62-2.85,4.48,4.48,0,0,1,1.74-1.93,4.82,4.82,0,0,1,2.57-.68,4.37,4.37,0,0,1,3.42,1.37,5.54,5.54,0,0,1,1.24,3.87v1.16H94.17a2.62,2.62,0,0,0,.83,1.66,2.52,2.52,0,0,0,1.74.62,3,3,0,0,0,2.55-1.18l1.39,1.55a4.25,4.25,0,0,1-1.72,1.4A5.58,5.58,0,0,1,96.56,282Zm-.33-8.69a1.76,1.76,0,0,0-1.36.57,3,3,0,0,0-.67,1.63h3.93v-.22a2.07,2.07,0,0,0-.51-1.46A1.85,1.85,0,0,0,96.23,273.33Z" transform="translate(-12.61 -34.95)" style="fill:#f6ae2d"/><path d="M53.32,304.47v5H50.39V295.27h5.55a6.43,6.43,0,0,1,2.82.58,4.34,4.34,0,0,1,1.87,1.67,4.67,4.67,0,0,1,.65,2.45,4.07,4.07,0,0,1-1.43,3.3,6,6,0,0,1-4,1.2Zm0-2.37h2.62a2.52,2.52,0,0,0,1.77-.55,2,2,0,0,0,.61-1.56,2.36,2.36,0,0,0-.61-1.69,2.29,2.29,0,0,0-1.7-.66H53.32Z" transform="translate(-12.61 -34.95)" style="fill:#48a9a6"/><path d="M69.05,301.56a8.06,8.06,0,0,0-1-.07,2.07,2.07,0,0,0-2.1,1.08v6.91H63.11V298.92h2.66l.08,1.26a2.63,2.63,0,0,1,2.36-1.46,3.17,3.17,0,0,1,.88.13Z" transform="translate(-12.61 -34.95)" style="fill:#48a9a6"/><path d="M76.23,309.48a3.17,3.17,0,0,1-.28-.94,3.41,3.41,0,0,1-2.67,1.14,3.75,3.75,0,0,1-2.57-.9,2.88,2.88,0,0,1-1-2.26,3,3,0,0,1,1.25-2.58,6.15,6.15,0,0,1,3.59-.91h1.3v-.61a1.75,1.75,0,0,0-.37-1.17,1.5,1.5,0,0,0-1.19-.44,1.74,1.74,0,0,0-1.12.34,1.16,1.16,0,0,0-.4.94H69.93a2.82,2.82,0,0,1,.56-1.7,3.7,3.7,0,0,1,1.6-1.22,5.8,5.8,0,0,1,2.33-.45,4.64,4.64,0,0,1,3.1,1,3.47,3.47,0,0,1,1.15,2.76V307a4.92,4.92,0,0,0,.42,2.28v.16Zm-2.33-2a2.36,2.36,0,0,0,1.15-.28,1.81,1.81,0,0,0,.78-.74v-1.82h-1c-1.41,0-2.17.49-2.26,1.46v.17a1.16,1.16,0,0,0,.37.87A1.45,1.45,0,0,0,73.9,307.52Z" transform="translate(-12.61 -34.95)" style="fill:#48a9a6"/><path d="M85.23,307.4A1.84,1.84,0,0,0,86.5,307a1.53,1.53,0,0,0,.51-1.14h2.64a3.6,3.6,0,0,1-.58,2,3.88,3.88,0,0,1-1.58,1.39,5.08,5.08,0,0,1-2.21.49,4.61,4.61,0,0,1-3.58-1.44,5.72,5.72,0,0,1-1.31-4v-.19a5.66,5.66,0,0,1,1.3-3.89,4.56,4.56,0,0,1,3.57-1.46,4.46,4.46,0,0,1,3.18,1.13,4,4,0,0,1,1.21,3H87a2,2,0,0,0-.51-1.34,1.72,1.72,0,0,0-1.29-.51,1.69,1.69,0,0,0-1.49.72,4.11,4.11,0,0,0-.5,2.33v.29a4.26,4.26,0,0,0,.49,2.35A1.73,1.73,0,0,0,85.23,307.4Z" transform="translate(-12.61 -34.95)" style="fill:#48a9a6"/><path d="M94.64,296.32v2.6h1.81V301H94.64v5.27a1.26,1.26,0,0,0,.23.84,1.12,1.12,0,0,0,.86.26,5,5,0,0,0,.83-.07v2.14a6.21,6.21,0,0,1-1.71.25q-3,0-3-3V301H90.28v-2.07h1.54v-2.6Z" transform="translate(-12.61 -34.95)" style="fill:#48a9a6"/><path d="M98,296.18a1.36,1.36,0,0,1,.43-1,1.6,1.6,0,0,1,1.15-.41,1.63,1.63,0,0,1,1.16.41,1.39,1.39,0,0,1,.43,1,1.41,1.41,0,0,1-.44,1.06,1.8,1.8,0,0,1-2.29,0A1.41,1.41,0,0,1,98,296.18Zm3,13.3H98.17V298.92H101Z" transform="translate(-12.61 -34.95)" style="fill:#48a9a6"/><path d="M107.72,307.4A1.84,1.84,0,0,0,109,307a1.53,1.53,0,0,0,.51-1.14h2.64a3.6,3.6,0,0,1-.58,2,3.88,3.88,0,0,1-1.58,1.39,5.08,5.08,0,0,1-2.21.49,4.61,4.61,0,0,1-3.58-1.44,5.72,5.72,0,0,1-1.31-4v-.19a5.66,5.66,0,0,1,1.3-3.89,4.56,4.56,0,0,1,3.57-1.46,4.46,4.46,0,0,1,3.18,1.13,4,4,0,0,1,1.21,3H109.5a2,2,0,0,0-.51-1.34,1.72,1.72,0,0,0-1.29-.51,1.69,1.69,0,0,0-1.49.72,4.11,4.11,0,0,0-.5,2.33v.29a4.26,4.26,0,0,0,.49,2.35A1.73,1.73,0,0,0,107.72,307.4Z" transform="translate(-12.61 -34.95)" style="fill:#48a9a6"/><path d="M118.62,309.68a5.22,5.22,0,0,1-3.79-1.43,5.06,5.06,0,0,1-1.46-3.79v-.28a6.42,6.42,0,0,1,.62-2.85,4.53,4.53,0,0,1,1.74-1.93,4.91,4.91,0,0,1,2.57-.68,4.4,4.4,0,0,1,3.42,1.37A5.55,5.55,0,0,1,123,304v1.15h-6.73a2.67,2.67,0,0,0,.83,1.66,2.48,2.48,0,0,0,1.74.62,3,3,0,0,0,2.55-1.18l1.39,1.56a4.42,4.42,0,0,1-1.72,1.4A5.69,5.69,0,0,1,118.62,309.68Zm-.33-8.68a1.76,1.76,0,0,0-1.36.57,3,3,0,0,0-.67,1.63h3.93V303a2.08,2.08,0,0,0-.51-1.46A1.83,1.83,0,0,0,118.29,301Z" transform="translate(-12.61 -34.95)" style="fill:#48a9a6"/><path d="M75.92,336.26H73l-5.7-9.36v9.36H64.36V322h2.93L73,331.41V322h2.92Z" transform="translate(-12.61 -34.95)" style="fill:#7ec8c5"/><path d="M84.62,335.18a3.53,3.53,0,0,1-2.89,1.27,3.33,3.33,0,0,1-2.59-1,4.19,4.19,0,0,1-.92-2.86v-6.93h2.83v6.84q0,1.65,1.5,1.65a2,2,0,0,0,2-1v-7.49h2.83v10.57H84.7Z" transform="translate(-12.61 -34.95)" style="fill:#7ec8c5"/><path d="M92.13,325.69l.09,1.18a3.73,3.73,0,0,1,3-1.37,2.81,2.81,0,0,1,2.81,1.61,3.61,3.61,0,0,1,3.17-1.61,3.14,3.14,0,0,1,2.56,1,4.58,4.58,0,0,1,.84,3v6.75H101.8v-6.74a2,2,0,0,0-.35-1.31,1.56,1.56,0,0,0-1.24-.42A1.75,1.75,0,0,0,98.45,329v7.26H95.64v-6.73a2,2,0,0,0-.37-1.33,1.58,1.58,0,0,0-1.23-.41,1.8,1.8,0,0,0-1.73,1v7.47H89.48V325.69Z" transform="translate(-12.61 -34.95)" style="fill:#7ec8c5"/><path d="M116.32,331.07a6.36,6.36,0,0,1-1.09,4,3.57,3.57,0,0,1-3,1.42,3.31,3.31,0,0,1-2.75-1.32l-.12,1.13H106.8v-15h2.82v5.38a3.22,3.22,0,0,1,2.57-1.14,3.6,3.6,0,0,1,3,1.42,6.41,6.41,0,0,1,1.1,4Zm-2.82-.2a4.18,4.18,0,0,0-.51-2.34,1.72,1.72,0,0,0-1.51-.74,1.87,1.87,0,0,0-1.86,1.1v4.17a1.87,1.87,0,0,0,1.87,1.12,1.74,1.74,0,0,0,1.8-1.35A6.77,6.77,0,0,0,113.5,330.87Z" transform="translate(-12.61 -34.95)" style="fill:#7ec8c5"/><path d="M122.92,336.45a5.17,5.17,0,0,1-3.78-1.42,5,5,0,0,1-1.46-3.8V331a6.35,6.35,0,0,1,.61-2.85,4.56,4.56,0,0,1,1.74-1.94,4.94,4.94,0,0,1,2.58-.67,4.39,4.39,0,0,1,3.41,1.36,5.57,5.57,0,0,1,1.25,3.88v1.15h-6.73a2.59,2.59,0,0,0,.82,1.66,2.49,2.49,0,0,0,1.75.63,3.06,3.06,0,0,0,2.54-1.18l1.39,1.55a4.2,4.2,0,0,1-1.72,1.4A5.55,5.55,0,0,1,122.92,336.45Zm-.32-8.68a1.74,1.74,0,0,0-1.36.57,2.88,2.88,0,0,0-.67,1.63h3.92v-.23a2.06,2.06,0,0,0-.51-1.45A1.77,1.77,0,0,0,122.6,327.77Z" transform="translate(-12.61 -34.95)" style="fill:#7ec8c5"/><path d="M134.81,328.34a8.26,8.26,0,0,0-1-.08,2.07,2.07,0,0,0-2.1,1.08v6.92h-2.82V325.69h2.66l.08,1.26A2.62,2.62,0,0,1,134,325.5a3,3,0,0,1,.87.12Z" transform="translate(-12.61 -34.95)" style="fill:#7ec8c5"/><path d="M141.89,333.34a.92.92,0,0,0-.52-.82,5.9,5.9,0,0,0-1.64-.53c-2.52-.53-3.77-1.6-3.77-3.2a2.92,2.92,0,0,1,1.16-2.35,4.72,4.72,0,0,1,3.06-.94,5,5,0,0,1,3.21.94,3,3,0,0,1,1.21,2.46h-2.82a1.38,1.38,0,0,0-.39-1,1.67,1.67,0,0,0-1.22-.39,1.73,1.73,0,0,0-1.11.32,1,1,0,0,0-.39.82.88.88,0,0,0,.45.76,4.75,4.75,0,0,0,1.5.5,10.62,10.62,0,0,1,1.77.47,2.92,2.92,0,0,1,2.24,2.84,2.76,2.76,0,0,1-1.24,2.34,5.33,5.33,0,0,1-3.2.89,5.65,5.65,0,0,1-2.36-.47,4,4,0,0,1-1.62-1.3,3,3,0,0,1-.58-1.78h2.67a1.48,1.48,0,0,0,.56,1.15,2.18,2.18,0,0,0,1.38.4,2,2,0,0,0,1.23-.31A.94.94,0,0,0,141.89,333.34Z" transform="translate(-12.61 -34.95)" style="fill:#7ec8c5"/><path d="M75.22,354.05a5,5,0,0,1-1.69,3.61,6,6,0,0,1-4,1.32,5.34,5.34,0,0,1-4.3-1.84,7.53,7.53,0,0,1-1.57-5.06v-.86a8.57,8.57,0,0,1,.72-3.62,5.34,5.34,0,0,1,2.07-2.39,6.43,6.43,0,0,1,7.08.48,5.43,5.43,0,0,1,1.74,3.7H72.31a3,3,0,0,0-.77-2,2.83,2.83,0,0,0-2-.62,2.5,2.5,0,0,0-2.2,1.05,5.92,5.92,0,0,0-.74,3.26v1.07a6.25,6.25,0,0,0,.7,3.37,2.44,2.44,0,0,0,2.2,1.07,2.89,2.89,0,0,0,2-.62,2.79,2.79,0,0,0,.77-1.92Z" transform="translate(-12.61 -34.95)" style="fill:#86cbc8"/><path d="M83.08,358.78a3.17,3.17,0,0,1-.28-.94A3.41,3.41,0,0,1,80.13,359a3.75,3.75,0,0,1-2.57-.9,2.88,2.88,0,0,1-1-2.26,3,3,0,0,1,1.24-2.58,6.16,6.16,0,0,1,3.6-.91h1.3v-.61a1.75,1.75,0,0,0-.37-1.17,1.5,1.5,0,0,0-1.19-.44,1.72,1.72,0,0,0-1.12.34,1.16,1.16,0,0,0-.4.94H76.77a2.83,2.83,0,0,1,.57-1.7,3.7,3.7,0,0,1,1.6-1.22,5.8,5.8,0,0,1,2.33-.45,4.64,4.64,0,0,1,3.1,1,3.46,3.46,0,0,1,1.14,2.76v4.58a5.17,5.17,0,0,0,.42,2.28v.16Zm-2.33-2a2.39,2.39,0,0,0,1.15-.28,1.81,1.81,0,0,0,.78-.74V354H81.63c-1.42,0-2.17.49-2.26,1.46v.17a1.13,1.13,0,0,0,.37.87A1.45,1.45,0,0,0,80.75,356.82Z" transform="translate(-12.61 -34.95)" style="fill:#86cbc8"/><path d="M93.62,350.86a7.94,7.94,0,0,0-1-.07,2.08,2.08,0,0,0-2.1,1.08v6.91H87.68V348.22h2.67l.08,1.26A2.61,2.61,0,0,1,92.78,348a2.84,2.84,0,0,1,.88.13Z" transform="translate(-12.61 -34.95)" style="fill:#86cbc8"/><path d="M94.54,353.42a6.34,6.34,0,0,1,1.11-3.93,3.58,3.58,0,0,1,3-1.47,3.26,3.26,0,0,1,2.55,1.15v-5.39h2.83v15h-2.55l-.14-1.12A3.3,3.3,0,0,1,98.66,359a3.57,3.57,0,0,1-3-1.47A6.52,6.52,0,0,1,94.54,353.42Zm2.82.21a4.14,4.14,0,0,0,.52,2.28,1.67,1.67,0,0,0,1.5.79,1.89,1.89,0,0,0,1.85-1.1v-4.18a1.87,1.87,0,0,0-1.83-1.1C98,350.32,97.36,351.42,97.36,353.63Z" transform="translate(-12.61 -34.95)" style="fill:#86cbc8"/><path d="M112,355.86a.91.91,0,0,0-.51-.81,5.67,5.67,0,0,0-1.65-.53q-3.77-.79-3.77-3.21a2.92,2.92,0,0,1,1.17-2.35,4.75,4.75,0,0,1,3.05-.94,5.1,5.1,0,0,1,3.22,1,3,3,0,0,1,1.2,2.46h-2.82a1.36,1.36,0,0,0-.39-1,1.67,1.67,0,0,0-1.22-.4,1.64,1.64,0,0,0-1.1.33,1,1,0,0,0-.39.82.85.85,0,0,0,.44.75,4.45,4.45,0,0,0,1.5.5,12.09,12.09,0,0,1,1.78.48,2.91,2.91,0,0,1,2.23,2.84,2.76,2.76,0,0,1-1.24,2.34,5.36,5.36,0,0,1-3.2.89,5.68,5.68,0,0,1-2.36-.47,4,4,0,0,1-1.62-1.3,3,3,0,0,1-.58-1.79h2.67a1.51,1.51,0,0,0,.56,1.16,2.27,2.27,0,0,0,1.39.4,2,2,0,0,0,1.22-.31A1,1,0,0,0,112,355.86Z" transform="translate(-12.61 -34.95)" style="fill:#86cbc8"/><path d="M61.1,382.42H56.74v11.85H53.81V382.42H49.52v-2.37H61.1Z" transform="translate(-12.61 -34.95)" style="fill:#48a9a6"/><path d="M67.06,394.27a3.15,3.15,0,0,1-.28-.95,3.42,3.42,0,0,1-2.67,1.15,3.75,3.75,0,0,1-2.57-.9,2.9,2.9,0,0,1-1-2.27,3,3,0,0,1,1.25-2.58,6.15,6.15,0,0,1,3.59-.9h1.3v-.61a1.73,1.73,0,0,0-.37-1.17,1.5,1.5,0,0,0-1.19-.44,1.68,1.68,0,0,0-1.12.34,1.16,1.16,0,0,0-.4.94H60.76a2.82,2.82,0,0,1,.56-1.7,3.8,3.8,0,0,1,1.6-1.23,6,6,0,0,1,2.33-.44,4.64,4.64,0,0,1,3.1,1,3.44,3.44,0,0,1,1.15,2.76v4.58a4.85,4.85,0,0,0,.42,2.27v.17Zm-2.33-2a2.47,2.47,0,0,0,1.15-.28,1.89,1.89,0,0,0,.78-.75v-1.81h-1c-1.41,0-2.17.48-2.26,1.46v.17a1.16,1.16,0,0,0,.37.87A1.49,1.49,0,0,0,64.73,392.31Z" transform="translate(-12.61 -34.95)" style="fill:#48a9a6"/><path d="M81.19,389.08a6.39,6.39,0,0,1-1.09,4,3.59,3.59,0,0,1-3,1.43,3.29,3.29,0,0,1-2.74-1.32l-.13,1.12H71.66v-15h2.83v5.38a3.2,3.2,0,0,1,2.56-1.14,3.64,3.64,0,0,1,3,1.42,6.43,6.43,0,0,1,1.1,4Zm-2.83-.2a4.18,4.18,0,0,0-.51-2.34,1.71,1.71,0,0,0-1.51-.74,1.84,1.84,0,0,0-1.85,1.11v4.17a1.88,1.88,0,0,0,1.87,1.11,1.75,1.75,0,0,0,1.8-1.35A7.23,7.23,0,0,0,78.36,388.88Z" transform="translate(-12.61 -34.95)" style="fill:#48a9a6"/><path d="M85.9,394.27H83.07v-15H85.9Z" transform="translate(-12.61 -34.95)" style="fill:#48a9a6"/><path d="M93.09,394.47A5.18,5.18,0,0,1,89.31,393a5,5,0,0,1-1.46-3.8V389a6.41,6.41,0,0,1,.61-2.85,4.48,4.48,0,0,1,1.74-1.93,4.94,4.94,0,0,1,2.58-.68,4.36,4.36,0,0,1,3.41,1.37,5.54,5.54,0,0,1,1.25,3.87v1.16H90.71a2.61,2.61,0,0,0,.82,1.66,2.52,2.52,0,0,0,1.74.62A3,3,0,0,0,95.82,391l1.39,1.55a4.18,4.18,0,0,1-1.72,1.4A5.55,5.55,0,0,1,93.09,394.47Zm-.32-8.69a1.78,1.78,0,0,0-1.37.57,3,3,0,0,0-.66,1.63h3.92v-.22a2.07,2.07,0,0,0-.51-1.46A1.81,1.81,0,0,0,92.77,385.78Z" transform="translate(-12.61 -34.95)" style="fill:#48a9a6"/><path d="M104.76,391.35a.9.9,0,0,0-.51-.81,5.94,5.94,0,0,0-1.65-.54q-3.76-.78-3.77-3.2a2.9,2.9,0,0,1,1.17-2.35,4.69,4.69,0,0,1,3-.94,5,5,0,0,1,3.22.95,3,3,0,0,1,1.2,2.46h-2.82a1.35,1.35,0,0,0-.39-1,1.63,1.63,0,0,0-1.22-.4,1.72,1.72,0,0,0-1.1.32,1,1,0,0,0-.39.82.85.85,0,0,0,.44.76,4.68,4.68,0,0,0,1.5.5,13.19,13.19,0,0,1,1.78.47,2.92,2.92,0,0,1,2.23,2.84,2.74,2.74,0,0,1-1.24,2.34,5.3,5.3,0,0,1-3.2.9,5.53,5.53,0,0,1-2.36-.48,3.87,3.87,0,0,1-1.61-1.3,3,3,0,0,1-.59-1.78h2.68a1.45,1.45,0,0,0,.55,1.15,2.21,2.21,0,0,0,1.39.4,2.05,2.05,0,0,0,1.22-.3A1,1,0,0,0,104.76,391.35Z" transform="translate(-12.61 -34.95)" style="fill:#48a9a6"/><path d="M74.17,415.38A7.21,7.21,0,0,1,73,419.89a4.86,4.86,0,0,1-7.13,0,7,7,0,0,1-1.26-4.39v-2.62a7.14,7.14,0,0,1,1.23-4.52,4.9,4.9,0,0,1,7.12,0,6.94,6.94,0,0,1,1.26,4.38Zm-2.83-2.88a5.24,5.24,0,0,0-.48-2.57,1.8,1.8,0,0,0-3,0,4.94,4.94,0,0,0-.5,2.4v3.46a5.51,5.51,0,0,0,.47,2.58,1.79,1.79,0,0,0,3,0,5.38,5.38,0,0,0,.47-2.48Z" transform="translate(-12.61 -34.95)" style="fill:#86cbc8"/><path d="M86.66,416.31h-5.5V414h5.5Z" transform="translate(-12.61 -34.95)" style="fill:#86cbc8"/><path d="M100.39,415.58a3.59,3.59,0,0,1-2.58,1.08,3.82,3.82,0,0,1-3-1.29,5.16,5.16,0,0,1-1.13-3.49,5.44,5.44,0,0,1,.61-2.57A4.43,4.43,0,0,1,96,407.5a4.67,4.67,0,0,1,2.46-.65,4.51,4.51,0,0,1,2.5.7,4.59,4.59,0,0,1,1.7,2,7.24,7.24,0,0,1,.62,3v1a8.22,8.22,0,0,1-1.77,5.59,6.7,6.7,0,0,1-5,2.17h-.69V419h.62Q100.09,418.87,100.39,415.58ZM98.5,414.5a1.94,1.94,0,0,0,1.18-.35,2.34,2.34,0,0,0,.75-.85v-1.16a3.93,3.93,0,0,0-.55-2.23,1.72,1.72,0,0,0-1.47-.79,1.64,1.64,0,0,0-1.39.78,3.72,3.72,0,0,0,0,3.86A1.76,1.76,0,0,0,98.5,414.5Z" transform="translate(-12.61 -34.95)" style="fill:#86cbc8"/><path d="M73.16,437a7.15,7.15,0,0,1-1.22,4.51,4.23,4.23,0,0,1-3.57,1.57,4.3,4.3,0,0,1-3.56-1.54,6.91,6.91,0,0,1-1.25-4.39v-2.62A7.14,7.14,0,0,1,64.79,430a4.88,4.88,0,0,1,7.11,0,6.83,6.83,0,0,1,1.26,4.39Zm-2.82-2.87a5.26,5.26,0,0,0-.48-2.58,1.8,1.8,0,0,0-3,0,4.83,4.83,0,0,0-.5,2.4v3.46a5.58,5.58,0,0,0,.47,2.59,1.62,1.62,0,0,0,1.52.84,1.57,1.57,0,0,0,1.49-.81,5.24,5.24,0,0,0,.48-2.48Z" transform="translate(-12.61 -34.95)" style="fill:#86cbc8"/><path d="M84.64,437a7.21,7.21,0,0,1-1.22,4.51,4.86,4.86,0,0,1-7.13,0A7,7,0,0,1,75,437.15v-2.62A7.08,7.08,0,0,1,76.27,430a4.88,4.88,0,0,1,7.11,0,7,7,0,0,1,1.26,4.39Zm-2.82-2.87a5.13,5.13,0,0,0-.49-2.58,1.8,1.8,0,0,0-3,0,4.94,4.94,0,0,0-.5,2.4v3.46a5.44,5.44,0,0,0,.48,2.59,1.79,1.79,0,0,0,3,0,5.5,5.5,0,0,0,.48-2.48Z" transform="translate(-12.61 -34.95)" style="fill:#86cbc8"/><path d="M97.13,437.93h-5.5v-2.27h5.5Z" transform="translate(-12.61 -34.95)" style="fill:#86cbc8"/><path d="M110.86,437.2a3.59,3.59,0,0,1-2.58,1.08,3.84,3.84,0,0,1-3-1.29,5.14,5.14,0,0,1-1.13-3.49,5.44,5.44,0,0,1,.61-2.57,4.52,4.52,0,0,1,1.71-1.81,4.64,4.64,0,0,1,2.46-.65,4.53,4.53,0,0,1,2.5.7,4.66,4.66,0,0,1,1.7,2,7.4,7.4,0,0,1,.61,3v1a8.2,8.2,0,0,1-1.77,5.59,6.63,6.63,0,0,1-5,2.17h-.69v-2.35h.63Q110.56,440.48,110.86,437.2ZM109,436.12a1.93,1.93,0,0,0,1.17-.35,2.34,2.34,0,0,0,.75-.85v-1.16a3.85,3.85,0,0,0-.55-2.23,1.7,1.7,0,0,0-1.46-.79,1.65,1.65,0,0,0-1.4.78,3.35,3.35,0,0,0-.55,2,3.2,3.2,0,0,0,.54,1.91A1.71,1.71,0,0,0,109,436.12Z" transform="translate(-12.61 -34.95)" style="fill:#86cbc8"/><path d="M122.33,437.2a3.55,3.55,0,0,1-2.57,1.08,3.81,3.81,0,0,1-3-1.29,5.09,5.09,0,0,1-1.13-3.49,5.44,5.44,0,0,1,.61-2.57,4.43,4.43,0,0,1,1.7-1.81,4.67,4.67,0,0,1,2.46-.65,4.51,4.51,0,0,1,2.5.7,4.59,4.59,0,0,1,1.7,2,7.4,7.4,0,0,1,.62,3v1a8.2,8.2,0,0,1-1.77,5.59,6.66,6.66,0,0,1-5,2.17h-.69v-2.35h.62Q122,440.48,122.33,437.2Zm-1.88-1.08a1.94,1.94,0,0,0,1.18-.35,2.31,2.31,0,0,0,.74-.85v-1.16a3.93,3.93,0,0,0-.54-2.23,1.73,1.73,0,0,0-1.47-.79,1.64,1.64,0,0,0-1.39.78,3.72,3.72,0,0,0,0,3.86A1.74,1.74,0,0,0,120.45,436.12Z" transform="translate(-12.61 -34.95)" style="fill:#86cbc8"/><path d="M76,460.16a5.05,5.05,0,0,1-1.69,3.61,6,6,0,0,1-4,1.32,5.32,5.32,0,0,1-4.3-1.84,7.52,7.52,0,0,1-1.57-5.05v-.87a8.57,8.57,0,0,1,.72-3.62,5.34,5.34,0,0,1,2.07-2.39,6.43,6.43,0,0,1,7.08.48A5.43,5.43,0,0,1,76,455.5H73.08a3,3,0,0,0-.77-2,2.85,2.85,0,0,0-2-.62,2.5,2.5,0,0,0-2.2,1.05,5.92,5.92,0,0,0-.74,3.26v1.07a6.35,6.35,0,0,0,.69,3.37,2.46,2.46,0,0,0,2.21,1.07,2.89,2.89,0,0,0,2-.62,2.79,2.79,0,0,0,.77-1.92Z" transform="translate(-12.61 -34.95)" style="fill:#86cbc8"/><path d="M83.85,464.89a3.08,3.08,0,0,1-.28-.94,3.43,3.43,0,0,1-2.67,1.14,3.75,3.75,0,0,1-2.57-.9,2.88,2.88,0,0,1-1-2.26,3,3,0,0,1,1.24-2.58,6.16,6.16,0,0,1,3.6-.91h1.3v-.61a1.72,1.72,0,0,0-.38-1.17,1.47,1.47,0,0,0-1.18-.44,1.72,1.72,0,0,0-1.12.34,1.17,1.17,0,0,0-.41.94H77.54a2.83,2.83,0,0,1,.57-1.7,3.7,3.7,0,0,1,1.6-1.22,5.78,5.78,0,0,1,2.32-.45,4.65,4.65,0,0,1,3.11,1,3.46,3.46,0,0,1,1.14,2.76v4.58a5.17,5.17,0,0,0,.42,2.28v.16Zm-2.33-2a2.39,2.39,0,0,0,1.15-.28,1.81,1.81,0,0,0,.78-.74v-1.82h-1c-1.42,0-2.17.49-2.26,1.46v.17a1.13,1.13,0,0,0,.37.87A1.45,1.45,0,0,0,81.52,462.93Z" transform="translate(-12.61 -34.95)" style="fill:#86cbc8"/><path d="M94.39,457a7.94,7.94,0,0,0-1-.07,2.07,2.07,0,0,0-2.1,1.08v6.91H88.45V454.33h2.67l.07,1.26a2.64,2.64,0,0,1,2.36-1.46,2.84,2.84,0,0,1,.88.13Z" transform="translate(-12.61 -34.95)" style="fill:#86cbc8"/><path d="M95.31,459.53a6.41,6.41,0,0,1,1.1-3.93,3.6,3.6,0,0,1,3-1.47,3.24,3.24,0,0,1,2.55,1.16v-5.4h2.83v15h-2.55l-.14-1.12a3.32,3.32,0,0,1-2.71,1.32,3.6,3.6,0,0,1-3-1.47A6.58,6.58,0,0,1,95.31,459.53Zm2.82.21a4.14,4.14,0,0,0,.52,2.28,1.67,1.67,0,0,0,1.5.79,1.89,1.89,0,0,0,1.85-1.1v-4.18a1.88,1.88,0,0,0-1.83-1.1C98.81,456.43,98.13,457.53,98.13,459.74Z" transform="translate(-12.61 -34.95)" style="fill:#86cbc8"/><path d="M112.74,462a.91.91,0,0,0-.51-.81,5.78,5.78,0,0,0-1.65-.53q-3.77-.79-3.77-3.21a2.88,2.88,0,0,1,1.17-2.34,4.67,4.67,0,0,1,3-.95,5.1,5.1,0,0,1,3.22.95,3,3,0,0,1,1.2,2.46h-2.82a1.36,1.36,0,0,0-.39-1,1.67,1.67,0,0,0-1.22-.4,1.64,1.64,0,0,0-1.1.33,1,1,0,0,0-.4.82.86.86,0,0,0,.45.75,4.45,4.45,0,0,0,1.5.5,12.09,12.09,0,0,1,1.78.48,2.91,2.91,0,0,1,2.23,2.84,2.76,2.76,0,0,1-1.24,2.34,5.36,5.36,0,0,1-3.2.89,5.68,5.68,0,0,1-2.36-.47,4,4,0,0,1-1.62-1.3,3,3,0,0,1-.58-1.78h2.67a1.51,1.51,0,0,0,.56,1.15,2.27,2.27,0,0,0,1.39.4,2,2,0,0,0,1.22-.31A1,1,0,0,0,112.74,462Z" transform="translate(-12.61 -34.95)" style="fill:#86cbc8"/><path d="M56.05,511.28H53.71v5.21H50.78V502.27h5.29A5.94,5.94,0,0,1,60,503.39a3.86,3.86,0,0,1,1.37,3.18,4.36,4.36,0,0,1-.63,2.42,4.22,4.22,0,0,1-1.91,1.55l3.08,5.81v.14H58.71Zm-2.34-2.37h2.37a2.46,2.46,0,0,0,1.71-.56,2,2,0,0,0,.6-1.55,2.14,2.14,0,0,0-.57-1.58,2.34,2.34,0,0,0-1.75-.58H53.71Z" transform="translate(-12.61 -34.95)" style="fill:#eb5e55"/><path d="M68.23,516.68a5.21,5.21,0,0,1-3.79-1.42,5.09,5.09,0,0,1-1.46-3.8v-.28a6.34,6.34,0,0,1,.62-2.84,4.56,4.56,0,0,1,1.74-1.94,4.9,4.9,0,0,1,2.57-.67,4.39,4.39,0,0,1,3.42,1.36A5.57,5.57,0,0,1,72.57,511v1.15H65.84a2.6,2.6,0,0,0,.83,1.66,2.48,2.48,0,0,0,1.74.63A3.06,3.06,0,0,0,71,513.23l1.39,1.55a4.33,4.33,0,0,1-1.72,1.4A5.73,5.73,0,0,1,68.23,516.68ZM67.9,508a1.76,1.76,0,0,0-1.36.57,3,3,0,0,0-.67,1.63H69.8V510a2,2,0,0,0-.51-1.45A1.81,1.81,0,0,0,67.9,508Z" transform="translate(-12.61 -34.95)" style="fill:#eb5e55"/><path d="M79.9,513.57a.9.9,0,0,0-.52-.82,5.9,5.9,0,0,0-1.64-.53c-2.52-.53-3.77-1.59-3.77-3.2a2.9,2.9,0,0,1,1.17-2.35,4.67,4.67,0,0,1,3-.94,5,5,0,0,1,3.21.94,3,3,0,0,1,1.21,2.46H79.79a1.38,1.38,0,0,0-.39-1,2.09,2.09,0,0,0-2.33-.07,1,1,0,0,0-.39.82.88.88,0,0,0,.45.76,4.32,4.32,0,0,0,1.5.49,11.59,11.59,0,0,1,1.77.48,2.92,2.92,0,0,1,2.24,2.84,2.76,2.76,0,0,1-1.24,2.34,5.38,5.38,0,0,1-3.2.89,5.68,5.68,0,0,1-2.36-.47,4,4,0,0,1-1.62-1.3,3,3,0,0,1-.58-1.78h2.67a1.48,1.48,0,0,0,.56,1.15,2.19,2.19,0,0,0,1.39.4,2,2,0,0,0,1.22-.31A.94.94,0,0,0,79.9,513.57Z" transform="translate(-12.61 -34.95)" style="fill:#eb5e55"/><path d="M84,511.11a6.34,6.34,0,0,1,.6-2.81,4.47,4.47,0,0,1,1.75-1.9,5,5,0,0,1,2.64-.67A4.82,4.82,0,0,1,92.5,507,5.31,5.31,0,0,1,94,510.59l0,.72a5.55,5.55,0,0,1-1.36,3.9,5.27,5.27,0,0,1-7.29,0,5.63,5.63,0,0,1-1.36-4Zm2.82.2a3.92,3.92,0,0,0,.57,2.3,1.85,1.85,0,0,0,1.62.8,1.9,1.9,0,0,0,1.6-.79,4.36,4.36,0,0,0,.57-2.52,4,4,0,0,0-.57-2.29A1.89,1.89,0,0,0,89,508a1.83,1.83,0,0,0-1.6.81A4.38,4.38,0,0,0,86.84,511.31Z" transform="translate(-12.61 -34.95)" style="fill:#eb5e55"/><path d="M102.09,515.41a3.52,3.52,0,0,1-2.89,1.27,3.34,3.34,0,0,1-2.59-1,4.17,4.17,0,0,1-.91-2.87v-6.92h2.82v6.83c0,1.11.5,1.66,1.5,1.66a2,2,0,0,0,2-1v-7.49h2.83v10.57h-2.66Z" transform="translate(-12.61 -34.95)" style="fill:#eb5e55"/><path d="M112.89,508.57a8,8,0,0,0-1-.08,2.07,2.07,0,0,0-2.1,1.08v6.92H107V505.92h2.66l.08,1.26a2.61,2.61,0,0,1,2.35-1.45,3.07,3.07,0,0,1,.88.12Z" transform="translate(-12.61 -34.95)" style="fill:#eb5e55"/><path d="M118.46,514.41a1.89,1.89,0,0,0,1.27-.43,1.53,1.53,0,0,0,.51-1.15h2.64a3.58,3.58,0,0,1-.58,2,3.88,3.88,0,0,1-1.58,1.39,4.91,4.91,0,0,1-2.21.49,4.58,4.58,0,0,1-3.57-1.44,5.65,5.65,0,0,1-1.31-4v-.18a5.62,5.62,0,0,1,1.3-3.9,4.51,4.51,0,0,1,3.56-1.45,4.46,4.46,0,0,1,3.18,1.12,4,4,0,0,1,1.21,3h-2.64a2,2,0,0,0-.51-1.34,1.88,1.88,0,0,0-2.78.2,4.22,4.22,0,0,0-.5,2.33v.3a4.13,4.13,0,0,0,.5,2.34A1.7,1.7,0,0,0,118.46,514.41Z" transform="translate(-12.61 -34.95)" style="fill:#eb5e55"/><path d="M129.36,516.68a5.21,5.21,0,0,1-3.79-1.42,5.09,5.09,0,0,1-1.46-3.8v-.28a6.34,6.34,0,0,1,.62-2.84,4.56,4.56,0,0,1,1.74-1.94,4.94,4.94,0,0,1,2.58-.67,4.39,4.39,0,0,1,3.41,1.36A5.57,5.57,0,0,1,133.7,511v1.15H127a2.59,2.59,0,0,0,.82,1.66,2.48,2.48,0,0,0,1.74.63,3.06,3.06,0,0,0,2.55-1.18l1.39,1.55a4.26,4.26,0,0,1-1.72,1.4A5.69,5.69,0,0,1,129.36,516.68ZM129,508a1.78,1.78,0,0,0-1.37.57,2.94,2.94,0,0,0-.66,1.63h3.92V510a2,2,0,0,0-.51-1.45A1.77,1.77,0,0,0,129,508Z" transform="translate(-12.61 -34.95)" style="fill:#eb5e55"/><path d="M141,513.57a.91.91,0,0,0-.51-.82,6,6,0,0,0-1.65-.53c-2.51-.53-3.77-1.59-3.77-3.2a2.9,2.9,0,0,1,1.17-2.35,4.69,4.69,0,0,1,3-.94,5.09,5.09,0,0,1,3.22.94,3,3,0,0,1,1.2,2.46h-2.82a1.38,1.38,0,0,0-.39-1,1.67,1.67,0,0,0-1.22-.39,1.64,1.64,0,0,0-1.1.32,1,1,0,0,0-.39.82.87.87,0,0,0,.44.76,4.48,4.48,0,0,0,1.5.49,12.09,12.09,0,0,1,1.78.48,2.91,2.91,0,0,1,2.23,2.84,2.76,2.76,0,0,1-1.24,2.34,5.36,5.36,0,0,1-3.2.89,5.68,5.68,0,0,1-2.36-.47,4,4,0,0,1-1.62-1.3,3,3,0,0,1-.58-1.78h2.67a1.51,1.51,0,0,0,.56,1.15,2.21,2.21,0,0,0,1.39.4,2,2,0,0,0,1.22-.31A.94.94,0,0,0,141,513.57Z" transform="translate(-12.61 -34.95)" style="fill:#eb5e55"/><path d="M58.42,540.61H53.28l-1,2.93H49.19l5.3-14.21H57.2l5.32,14.21H59.41Zm-4.34-2.37h3.55l-1.79-5.32Z" transform="translate(-12.61 -34.95)" style="fill:#eb5e55"/><path d="M73.19,538.36a6.36,6.36,0,0,1-1.09,4,3.57,3.57,0,0,1-3,1.42,3.31,3.31,0,0,1-2.75-1.32l-.13,1.12H63.67v-15h2.82v5.38a3.22,3.22,0,0,1,2.57-1.14,3.63,3.63,0,0,1,3,1.42,6.43,6.43,0,0,1,1.1,4Zm-2.83-.21a4.24,4.24,0,0,0-.5-2.34,1.73,1.73,0,0,0-1.52-.73,1.86,1.86,0,0,0-1.85,1.1v4.17a1.88,1.88,0,0,0,1.87,1.11,1.75,1.75,0,0,0,1.8-1.34A6.92,6.92,0,0,0,70.36,538.15Z" transform="translate(-12.61 -34.95)" style="fill:#eb5e55"/><path d="M74.49,538.16a6.33,6.33,0,0,1,.6-2.8,4.51,4.51,0,0,1,1.74-1.9,5.1,5.1,0,0,1,2.65-.68A4.83,4.83,0,0,1,83,534.09a5.29,5.29,0,0,1,1.51,3.56l0,.72a5.55,5.55,0,0,1-1.36,3.9,5.25,5.25,0,0,1-7.29,0,5.59,5.59,0,0,1-1.36-4Zm2.82.2a4,4,0,0,0,.56,2.31,2.05,2.05,0,0,0,3.23,0,4.38,4.38,0,0,0,.57-2.52,3.93,3.93,0,0,0-.57-2.29,2,2,0,0,0-3.23,0A4.49,4.49,0,0,0,77.31,538.36Z" transform="translate(-12.61 -34.95)" style="fill:#eb5e55"/><path d="M92.56,542.47a3.52,3.52,0,0,1-2.89,1.27,3.33,3.33,0,0,1-2.59-1,4.12,4.12,0,0,1-.91-2.86V533H89v6.83q0,1.65,1.5,1.65a2,2,0,0,0,2-1V533H95.3v10.56H92.64Z" transform="translate(-12.61 -34.95)" style="fill:#eb5e55"/><path d="M100.8,530.38V533h1.81v2.07H100.8v5.27a1.26,1.26,0,0,0,.23.84,1.12,1.12,0,0,0,.86.26,5,5,0,0,0,.83-.07v2.14a6.1,6.1,0,0,1-1.71.25q-3,0-3-3v-5.69H96.44V533H98v-2.6Z" transform="translate(-12.61 -34.95)" style="fill:#eb5e55"/><line x1="137.84" y1="448.74" x2="21.81" y2="448.74" style="stroke:#f6ae2d;stroke-miterlimit:10;stroke-width:2px"/><line x1="21.81" y1="513.41" x2="21.81" y2="229.3" style="stroke:#f6ae2d;stroke-miterlimit:10;stroke-width:2px"/></g><g id="step1"><path d="M65.56,53.65a2.64,2.64,0,0,0-1-2.23,13.14,13.14,0,0,0-3.69-1.64,26.06,26.06,0,0,1-4.22-1.7c-2.83-1.53-4.24-3.58-4.24-6.17a6,6,0,0,1,1.14-3.6,7.43,7.43,0,0,1,3.26-2.47A12.34,12.34,0,0,1,61.56,35a11.26,11.26,0,0,1,4.75,1,7.51,7.51,0,0,1,3.24,2.73,7.17,7.17,0,0,1,1.15,4H65.57A3.36,3.36,0,0,0,64.5,40a4.4,4.4,0,0,0-3-1,4.72,4.72,0,0,0-2.92.79,2.5,2.5,0,0,0-1,2.1,2.38,2.38,0,0,0,1.22,2,13.6,13.6,0,0,0,3.6,1.54,15.56,15.56,0,0,1,6.37,3.26,6.52,6.52,0,0,1,2,4.86,6,6,0,0,1-2.44,5.06,10.68,10.68,0,0,1-6.58,1.84,12.69,12.69,0,0,1-5.23-1.05,8.19,8.19,0,0,1-3.6-2.88,7.35,7.35,0,0,1-1.24-4.24h5.14q0,4.13,4.93,4.12a4.83,4.83,0,0,0,2.85-.74A2.44,2.44,0,0,0,65.56,53.65Z" transform="translate(-12.61 -34.95)" style="fill:#eb5e55"/><path d="M79.76,37.14v4.55h3.16v3.62H79.76v9.23A2.23,2.23,0,0,0,80.15,56a2,2,0,0,0,1.5.44,8,8,0,0,0,1.46-.12v3.75a10.4,10.4,0,0,1-3,.44c-3.47,0-5.23-1.75-5.3-5.25v-10h-2.7V41.69h2.7V37.14Z" transform="translate(-12.61 -34.95)" style="fill:#eb5e55"/><path d="M94.18,60.52A9,9,0,0,1,87.56,58,8.82,8.82,0,0,1,85,51.38V50.9a11.11,11.11,0,0,1,1.08-5,7.92,7.92,0,0,1,3-3.39,8.59,8.59,0,0,1,4.5-1.18,7.68,7.68,0,0,1,6,2.39q2.17,2.38,2.18,6.78v2H90a4.56,4.56,0,0,0,1.44,2.9,4.38,4.38,0,0,0,3.06,1.1A5.33,5.33,0,0,0,99,54.47l2.42,2.72a7.39,7.39,0,0,1-3,2.45A9.78,9.78,0,0,1,94.18,60.52Zm-.56-15.19a3.11,3.11,0,0,0-2.39,1,5.19,5.19,0,0,0-1.17,2.85h6.87v-.39A3.66,3.66,0,0,0,96,46.23,3.18,3.18,0,0,0,93.62,45.33Z" transform="translate(-12.61 -34.95)" style="fill:#eb5e55"/><path d="M121.23,51.1A11.07,11.07,0,0,1,119.29,58a6.22,6.22,0,0,1-5.23,2.57,5.76,5.76,0,0,1-4.53-2v8.72h-4.94V41.69h4.58l.17,1.81A5.78,5.78,0,0,1,114,41.35a6.28,6.28,0,0,1,5.32,2.52,11.46,11.46,0,0,1,1.89,7Zm-4.94-.36a7.28,7.28,0,0,0-.91-4,3,3,0,0,0-2.66-1.4,3.22,3.22,0,0,0-3.19,1.78v7.57a3.28,3.28,0,0,0,3.23,1.83Q116.29,56.54,116.29,50.74Z" transform="translate(-12.61 -34.95)" style="fill:#eb5e55"/><path d="M144.8,60.18h-4.94v-19L134,43V39l10.3-3.69h.53Z" transform="translate(-12.61 -34.95)" style="fill:#eb5e55"/><path d="M118.45,413.26a38.33,38.33,0,0,1,11.83-8.76,1.75,1.75,0,0,0,.89-1.55,1.48,1.48,0,0,0-.53-1.27,1.86,1.86,0,0,0-2.17-.28,33.46,33.46,0,0,0-12.11,10.24c-.92,1.21,1.09,2.74,2.09,1.62Z" transform="translate(-12.61 -34.95)" style="fill:#eb5e55"/><path d="M117.77,415.38l6.91,4.46c2,1.26,3.82,2.92,6.17,3.22,1,.13,1.64-1.22,1.16-2-1.21-2-3.64-3-5.55-4.25l-6.91-4.45c-1.91-1.23-3.67,1.81-1.78,3Z" transform="translate(-12.61 -34.95)" style="fill:#eb5e55"/><polyline points="173.09 120.55 173.09 123.45 170.19 123.45" style="fill:none;stroke:#eb5e55;stroke-miterlimit:10;stroke-width:2.0673137350903343px"/><line x1="166.61" y1="123.45" x2="157" y2="123.45" style="fill:none;stroke:#eb5e55;stroke-miterlimit:10;stroke-width:2.0673137350903343px;stroke-dasharray:0.020725654438138008,5.9847731590271,3.5970818996429443,0"/><line x1="157" y1="123.45" x2="41.9" y2="123.45" style="fill:none;stroke:#eb5e55;stroke-miterlimit:10;stroke-width:2.0673137350903343px;stroke-dasharray:5.99513578414917,3.586719036102295,0.020725654438138008,5.9847731590271,3.5970818996429443,0"/><polyline points="41.9 123.45 39 123.45 39 120.55" style="fill:none;stroke:#eb5e55;stroke-miterlimit:10;stroke-width:2.0673137350903343px"/><line x1="39" y1="116.85" x2="39" y2="106.94" style="fill:none;stroke:#eb5e55;stroke-miterlimit:10;stroke-width:2.0673137350903343px;stroke-dasharray:0.021399367600679398,6.179315567016602,3.7140095233917236,0"/><line x1="39" y1="106.94" x2="39" y2="47.51" style="fill:none;stroke:#eb5e55;stroke-miterlimit:10;stroke-width:2.0673137350903343px;stroke-dasharray:6.1900153160095215,3.7033097743988037,0.021399367600679398,6.179315567016602,3.7140095233917236,0"/><polyline points="39 47.51 39 44.62 41.9 44.62" style="fill:none;stroke:#eb5e55;stroke-miterlimit:10;stroke-width:2.0673137350903343px"/><line x1="45.48" y1="44.62" x2="55.09" y2="44.62" style="fill:none;stroke:#eb5e55;stroke-miterlimit:10;stroke-width:2.0673137350903343px;stroke-dasharray:0.020725654438138008,5.9847731590271,3.5970818996429443,0"/><line x1="55.09" y1="44.62" x2="170.19" y2="44.62" style="fill:none;stroke:#eb5e55;stroke-miterlimit:10;stroke-width:2.0673137350903343px;stroke-dasharray:5.99513578414917,3.586719036102295,0.020725654438138008,5.9847731590271,3.5970818996429443,0"/><polyline points="170.19 44.62 173.09 44.62 173.09 47.51" style="fill:none;stroke:#eb5e55;stroke-miterlimit:10;stroke-width:2.0673137350903343px"/><line x1="173.09" y1="51.21" x2="173.09" y2="61.13" style="fill:none;stroke:#eb5e55;stroke-miterlimit:10;stroke-width:2.0673137350903343px;stroke-dasharray:0.021399367600679398,6.179315567016602,3.7140095233917236,0"/><line x1="173.09" y1="61.13" x2="173.09" y2="120.55" style="fill:none;stroke:#eb5e55;stroke-miterlimit:10;stroke-width:2.0673137350903343px;stroke-dasharray:6.1900153160095215,3.7033097743988037,0.021399367600679398,6.179315567016602,3.7140095233917236,0"/><path d="M79.79,101.9a1.21,1.21,0,0,0-.46-1,6.81,6.81,0,0,0-1.69-.75,12.19,12.19,0,0,1-1.93-.77,3.16,3.16,0,0,1-1.94-2.82,2.72,2.72,0,0,1,.52-1.65,3.4,3.4,0,0,1,1.49-1.13,5.66,5.66,0,0,1,2.19-.4,5,5,0,0,1,2.17.44A3.48,3.48,0,0,1,81.62,95a3.3,3.3,0,0,1,.53,1.83H79.8a1.52,1.52,0,0,0-.49-1.21,2,2,0,0,0-1.38-.44,2.12,2.12,0,0,0-1.34.37,1.14,1.14,0,0,0-.48,1,1.1,1.1,0,0,0,.56.93,6.41,6.41,0,0,0,1.65.71,7,7,0,0,1,2.91,1.49,3,3,0,0,1,.92,2.22A2.75,2.75,0,0,1,81,104.2a4.91,4.91,0,0,1-3,.84,5.83,5.83,0,0,1-2.39-.48A3.76,3.76,0,0,1,74,103.25a3.38,3.38,0,0,1-.57-1.94h2.35c0,1.25.75,1.88,2.25,1.88a2.19,2.19,0,0,0,1.31-.34A1.09,1.09,0,0,0,79.79,101.9Z" transform="translate(-12.61 -34.95)"/><path d="M87.47,105a4.14,4.14,0,0,1-3-1.14,4,4,0,0,1-1.17-3v-.21a5.09,5.09,0,0,1,.49-2.28,3.58,3.58,0,0,1,1.4-1.55,3.9,3.9,0,0,1,2-.54A3.49,3.49,0,0,1,90,97.37a4.41,4.41,0,0,1,1,3.1v.93H85.57a2,2,0,0,0,.66,1.32,2,2,0,0,0,1.39.5,2.44,2.44,0,0,0,2-.94l1.11,1.24a3.44,3.44,0,0,1-1.37,1.12A4.5,4.5,0,0,1,87.47,105Zm-.25-6.94a1.4,1.4,0,0,0-1.09.45,2.39,2.39,0,0,0-.54,1.31h3.14v-.18a1.67,1.67,0,0,0-.4-1.17A1.49,1.49,0,0,0,87.22,98.1Z" transform="translate(-12.61 -34.95)"/><path d="M94.94,94.36v2.07h1.44v1.66H94.94v4.22a1,1,0,0,0,.17.67.89.89,0,0,0,.69.2,3.45,3.45,0,0,0,.67-.05v1.71a4.54,4.54,0,0,1-1.37.2,2.15,2.15,0,0,1-2.42-2.39V98.09H91.44V96.43h1.24V94.36Z" transform="translate(-12.61 -34.95)"/><path d="M104,104.89h-2.27v-12H104Z" transform="translate(-12.61 -34.95)"/><path d="M109.76,105a4.16,4.16,0,0,1-3-1.14,4,4,0,0,1-1.17-3v-.21a5.09,5.09,0,0,1,.49-2.28,3.64,3.64,0,0,1,1.4-1.55,3.91,3.91,0,0,1,2.06-.54,3.52,3.52,0,0,1,2.73,1.09,4.46,4.46,0,0,1,1,3.1v.93h-5.38a2,2,0,0,0,.66,1.32,2,2,0,0,0,1.39.5,2.44,2.44,0,0,0,2-.94l1.11,1.24a3.38,3.38,0,0,1-1.37,1.12A4.49,4.49,0,0,1,109.76,105Zm-.26-6.94a1.42,1.42,0,0,0-1.09.45,2.39,2.39,0,0,0-.54,1.31H111v-.18a1.67,1.67,0,0,0-.4-1.17A1.47,1.47,0,0,0,109.5,98.1Z" transform="translate(-12.61 -34.95)"/><path d="M117.22,94.36v2.07h1.44v1.66h-1.44v4.22a1,1,0,0,0,.18.67.86.86,0,0,0,.68.2,3.39,3.39,0,0,0,.67-.05v1.71a4.5,4.5,0,0,1-1.37.2,2.15,2.15,0,0,1-2.42-2.39V98.09h-1.24V96.43H115V94.36Z" transform="translate(-12.61 -34.95)"/><path d="M122.62,94.36v2.07h1.45v1.66h-1.45v4.22a1,1,0,0,0,.18.67.89.89,0,0,0,.69.2,3.28,3.28,0,0,0,.66-.05v1.71a4.44,4.44,0,0,1-1.36.2,2.16,2.16,0,0,1-2.43-2.39V98.09h-1.23V96.43h1.23V94.36Z" transform="translate(-12.61 -34.95)"/><path d="M129.22,105a4.16,4.16,0,0,1-3-1.14,4,4,0,0,1-1.17-3v-.21a5.23,5.23,0,0,1,.49-2.28,3.64,3.64,0,0,1,1.4-1.55,3.93,3.93,0,0,1,2.06-.54,3.52,3.52,0,0,1,2.73,1.09,4.46,4.46,0,0,1,1,3.1v.93h-5.38a2,2,0,0,0,.66,1.32,2,2,0,0,0,1.39.5,2.44,2.44,0,0,0,2-.94l1.11,1.24a3.38,3.38,0,0,1-1.37,1.12A4.49,4.49,0,0,1,129.22,105ZM129,98.1a1.42,1.42,0,0,0-1.09.45,2.39,2.39,0,0,0-.54,1.31h3.14v-.18a1.67,1.67,0,0,0-.4-1.17A1.47,1.47,0,0,0,129,98.1Z" transform="translate(-12.61 -34.95)"/><path d="M138.72,98.55a6.19,6.19,0,0,0-.81-.06,1.66,1.66,0,0,0-1.68.87v5.53H134V96.43h2.14l.06,1a2.09,2.09,0,0,1,1.88-1.16,2.34,2.34,0,0,1,.71.1Z" transform="translate(-12.61 -34.95)"/><path d="M144.41,104.89v-6.8h-1.26V96.43h1.26v-.71a2.9,2.9,0,0,1,.82-2.21,3.11,3.11,0,0,1,2.28-.79,5.51,5.51,0,0,1,1.15.16l0,1.75a2.77,2.77,0,0,0-.69-.07c-.85,0-1.27.4-1.27,1.19v.68h1.68v1.66h-1.68v6.8Z" transform="translate(-12.61 -34.95)"/><path d="M149.18,100.58a5,5,0,0,1,.48-2.24,3.5,3.5,0,0,1,1.4-1.52,4,4,0,0,1,2.11-.54,3.87,3.87,0,0,1,2.79,1,4.21,4.21,0,0,1,1.21,2.85l0,.58a4.46,4.46,0,0,1-1.09,3.12,4.22,4.22,0,0,1-5.83,0,4.47,4.47,0,0,1-1.09-3.19Zm2.26.16a3.2,3.2,0,0,0,.45,1.85,1.64,1.64,0,0,0,2.58,0,3.51,3.51,0,0,0,.46-2,3.17,3.17,0,0,0-.46-1.83,1.49,1.49,0,0,0-1.3-.65,1.47,1.47,0,0,0-1.28.64A3.54,3.54,0,0,0,151.44,100.74Z" transform="translate(-12.61 -34.95)"/><path d="M163.33,98.55a6.46,6.46,0,0,0-.82-.06,1.66,1.66,0,0,0-1.68.87v5.53h-2.25V96.43h2.13l.06,1a2.09,2.09,0,0,1,1.88-1.16,2.34,2.34,0,0,1,.71.1Z" transform="translate(-12.61 -34.95)"/><path d="M73.77,124.24a4.15,4.15,0,0,1-3-1.14,4,4,0,0,1-1.17-3v-.21a5.09,5.09,0,0,1,.49-2.28,3.58,3.58,0,0,1,1.4-1.55,3.9,3.9,0,0,1,2-.54,3.53,3.53,0,0,1,2.74,1.09,4.46,4.46,0,0,1,1,3.1v.93H71.87a2,2,0,0,0,.66,1.32,2,2,0,0,0,1.39.5,2.44,2.44,0,0,0,2-.94l1.11,1.24a3.44,3.44,0,0,1-1.37,1.12A4.5,4.5,0,0,1,73.77,124.24Zm-.25-6.94a1.42,1.42,0,0,0-1.09.45,2.39,2.39,0,0,0-.54,1.31H75v-.18a1.67,1.67,0,0,0-.4-1.17A1.47,1.47,0,0,0,73.52,117.3Z" transform="translate(-12.61 -34.95)"/><path d="M81.6,121.33l1.57-5.7h2.35l-2.85,8.46H80.52l-2.85-8.46H80Z" transform="translate(-12.61 -34.95)"/><path d="M90.41,124.24a4.16,4.16,0,0,1-3-1.14,4,4,0,0,1-1.17-3v-.21a5.23,5.23,0,0,1,.49-2.28A3.64,3.64,0,0,1,88.1,116a3.93,3.93,0,0,1,2.06-.54,3.52,3.52,0,0,1,2.73,1.09,4.46,4.46,0,0,1,1,3.1v.93H88.5a2,2,0,0,0,.66,1.32,2,2,0,0,0,1.4.5,2.44,2.44,0,0,0,2-.94l1.1,1.24a3.31,3.31,0,0,1-1.37,1.12A4.49,4.49,0,0,1,90.41,124.24Zm-.26-6.94a1.42,1.42,0,0,0-1.09.45,2.39,2.39,0,0,0-.54,1.31h3.15v-.18a1.72,1.72,0,0,0-.41-1.17A1.47,1.47,0,0,0,90.15,117.3Z" transform="translate(-12.61 -34.95)"/><path d="M99.92,117.75a6.46,6.46,0,0,0-.82-.06,1.66,1.66,0,0,0-1.68.87v5.53H95.17v-8.46H97.3l.06,1a2.09,2.09,0,0,1,1.88-1.16,2.34,2.34,0,0,1,.71.1Z" transform="translate(-12.61 -34.95)"/><path d="M104.16,120.89l1.56-5.26h2.42l-3.4,9.77-.18.45a2.58,2.58,0,0,1-2.5,1.65,3.52,3.52,0,0,1-1-.15v-1.71h.34a1.86,1.86,0,0,0,1-.2,1.27,1.27,0,0,0,.49-.64l.27-.7-3-8.48h2.43Z" transform="translate(-12.61 -34.95)"/><path d="M115.1,115.63l.07,1a3,3,0,0,1,2.43-1.13,2.45,2.45,0,0,1,2,.79,3.71,3.71,0,0,1,.67,2.36v5.46H118v-5.41a1.48,1.48,0,0,0-.31-1,1.4,1.4,0,0,0-1-.33,1.54,1.54,0,0,0-1.43.82v6H113v-8.46Z" transform="translate(-12.61 -34.95)"/><path d="M127,123.23a2.82,2.82,0,0,1-2.31,1,2.69,2.69,0,0,1-2.08-.78,3.36,3.36,0,0,1-.73-2.29v-5.54h2.26v5.47q0,1.32,1.2,1.32a1.62,1.62,0,0,0,1.58-.79v-6h2.27v8.46H127.1Z" transform="translate(-12.61 -34.95)"/><path d="M133.05,115.63l.07,1a3,3,0,0,1,2.43-1.1,2.25,2.25,0,0,1,2.24,1.29,2.9,2.9,0,0,1,2.54-1.29,2.54,2.54,0,0,1,2,.8,3.72,3.72,0,0,1,.67,2.41v5.4h-2.27V118.7a1.59,1.59,0,0,0-.28-1,1.22,1.22,0,0,0-1-.34,1.42,1.42,0,0,0-1.41,1v5.81h-2.26V118.7a1.56,1.56,0,0,0-.29-1.06,1.24,1.24,0,0,0-1-.33,1.47,1.47,0,0,0-1.39.8v6h-2.26v-8.46Z" transform="translate(-12.61 -34.95)"/><path d="M152.4,119.94a5.13,5.13,0,0,1-.87,3.17,2.88,2.88,0,0,1-2.42,1.13,2.62,2.62,0,0,1-2.19-1l-.11.9h-2v-12H147v4.3a2.57,2.57,0,0,1,2.06-.91,2.89,2.89,0,0,1,2.42,1.13,5.12,5.12,0,0,1,.88,3.2Zm-2.26-.17a3.4,3.4,0,0,0-.4-1.87,1.39,1.39,0,0,0-1.22-.59,1.49,1.49,0,0,0-1.48.89v3.33a1.51,1.51,0,0,0,1.5.89,1.4,1.4,0,0,0,1.44-1.07A5.64,5.64,0,0,0,150.14,119.77Z" transform="translate(-12.61 -34.95)"/><path d="M157.68,124.24a4.16,4.16,0,0,1-3-1.14,4.08,4.08,0,0,1-1.16-3v-.21a5.09,5.09,0,0,1,.49-2.28,3.62,3.62,0,0,1,1.39-1.55,3.93,3.93,0,0,1,2.06-.54,3.49,3.49,0,0,1,2.73,1.09,4.41,4.41,0,0,1,1,3.1v.93h-5.39a2.1,2.1,0,0,0,.67,1.32,2,2,0,0,0,1.39.5,2.44,2.44,0,0,0,2-.94l1.11,1.24a3.41,3.41,0,0,1-1.38,1.12A4.49,4.49,0,0,1,157.68,124.24Zm-.26-6.94a1.43,1.43,0,0,0-1.09.45,2.46,2.46,0,0,0-.53,1.31h3.14v-.18a1.67,1.67,0,0,0-.41-1.17A1.47,1.47,0,0,0,157.42,117.3Z" transform="translate(-12.61 -34.95)"/><path d="M167.19,117.75a6.44,6.44,0,0,0-.81-.06,1.64,1.64,0,0,0-1.68.87v5.53h-2.26v-8.46h2.13l.06,1a2.12,2.12,0,0,1,1.89-1.16,2.28,2.28,0,0,1,.7.1Z" transform="translate(-12.61 -34.95)"/><path d="M82.33,143.29v-6.8H81.07v-1.66h1.26v-.71a2.9,2.9,0,0,1,.82-2.21,3.11,3.11,0,0,1,2.28-.79,5.6,5.6,0,0,1,1.15.16l0,1.75a2.77,2.77,0,0,0-.69-.07c-.85,0-1.27.4-1.27,1.19v.68h1.67v1.66H84.6v6.8Z" transform="translate(-12.61 -34.95)"/><path d="M92.2,137a6.46,6.46,0,0,0-.82-.06,1.66,1.66,0,0,0-1.68.87v5.53H87.45v-8.46h2.13l.06,1a2.1,2.1,0,0,1,1.88-1.16,2.34,2.34,0,0,1,.71.1Z" transform="translate(-12.61 -34.95)"/><path d="M92.65,139a5,5,0,0,1,.48-2.24,3.56,3.56,0,0,1,1.4-1.52,4.06,4.06,0,0,1,2.11-.54,3.91,3.91,0,0,1,2.8,1,4.2,4.2,0,0,1,1.2,2.85l0,.58a4.41,4.41,0,0,1-1.09,3.12,4.22,4.22,0,0,1-5.83,0,4.47,4.47,0,0,1-1.09-3.19Zm2.26.16a3.2,3.2,0,0,0,.45,1.85,1.64,1.64,0,0,0,2.58,0,3.43,3.43,0,0,0,.46-2,3.09,3.09,0,0,0-.46-1.83,1.49,1.49,0,0,0-1.3-.65,1.47,1.47,0,0,0-1.28.64A3.54,3.54,0,0,0,94.91,139.14Z" transform="translate(-12.61 -34.95)"/><path d="M104.17,134.83l.07.95a2.94,2.94,0,0,1,2.43-1.1,2.26,2.26,0,0,1,2.24,1.29,2.9,2.9,0,0,1,2.54-1.29,2.49,2.49,0,0,1,2,.8,3.67,3.67,0,0,1,.68,2.41v5.4H111.9V137.9a1.59,1.59,0,0,0-.28-1.05,1.22,1.22,0,0,0-1-.34,1.42,1.42,0,0,0-1.41,1v5.81H107V137.9a1.62,1.62,0,0,0-.29-1.06,1.24,1.24,0,0,0-1-.33,1.46,1.46,0,0,0-1.39.8v6h-2.26v-8.46Z" transform="translate(-12.61 -34.95)"/><path d="M127.45,138.58a5.75,5.75,0,0,1-1,3.61,3.38,3.38,0,0,1-2.86,1.25,3.43,3.43,0,0,1-2.84-1.22,5.55,5.55,0,0,1-1-3.52v-2.09a5.68,5.68,0,0,1,1-3.62,3.92,3.92,0,0,1,5.69,0,5.56,5.56,0,0,1,1,3.51Zm-2.26-2.3a4.14,4.14,0,0,0-.39-2.06,1.3,1.3,0,0,0-1.2-.64,1.27,1.27,0,0,0-1.18.61,3.87,3.87,0,0,0-.4,1.92v2.77a4.28,4.28,0,0,0,.38,2.07,1.43,1.43,0,0,0,2.41,0,4.3,4.3,0,0,0,.38-2Z" transform="translate(-12.61 -34.95)"/><path d="M135.75,132.76v2.07h1.45v1.66h-1.45v4.22a1,1,0,0,0,.18.67.89.89,0,0,0,.69.2,3.28,3.28,0,0,0,.66-.05v1.71a4.48,4.48,0,0,1-1.36.2,2.16,2.16,0,0,1-2.43-2.4v-4.55h-1.23v-1.66h1.23v-2.07Z" transform="translate(-12.61 -34.95)"/><path d="M137.87,139a5,5,0,0,1,.48-2.24,3.56,3.56,0,0,1,1.4-1.52,4,4,0,0,1,2.11-.54,3.87,3.87,0,0,1,2.79,1,4.17,4.17,0,0,1,1.21,2.85l0,.58a4.46,4.46,0,0,1-1.09,3.12,4.22,4.22,0,0,1-5.83,0,4.47,4.47,0,0,1-1.09-3.19Zm2.26.16a3.2,3.2,0,0,0,.45,1.85,1.64,1.64,0,0,0,2.58,0,3.43,3.43,0,0,0,.46-2,3.09,3.09,0,0,0-.46-1.83,1.49,1.49,0,0,0-1.3-.65,1.47,1.47,0,0,0-1.28.64A3.54,3.54,0,0,0,140.13,139.14Z" transform="translate(-12.61 -34.95)"/><path d="M156.44,138.74a2.85,2.85,0,0,1-2.06.87,3.07,3.07,0,0,1-2.42-1,4.1,4.1,0,0,1-.9-2.79,4.39,4.39,0,0,1,.48-2.05,3.55,3.55,0,0,1,1.37-1.45,3.74,3.74,0,0,1,2-.52,3.59,3.59,0,0,1,2,.56,3.71,3.71,0,0,1,1.36,1.62,5.89,5.89,0,0,1,.49,2.41v.84a6.53,6.53,0,0,1-1.42,4.46,5.29,5.29,0,0,1-4,1.74h-.56v-1.89h.5C155.22,141.42,156.28,140.5,156.44,138.74Zm-1.51-.86a1.54,1.54,0,0,0,.94-.28,1.85,1.85,0,0,0,.6-.68V136a3.1,3.1,0,0,0-.44-1.78,1.35,1.35,0,0,0-1.17-.63,1.32,1.32,0,0,0-1.12.62,2.64,2.64,0,0,0-.43,1.56,2.57,2.57,0,0,0,.42,1.52A1.4,1.4,0,0,0,154.93,137.88Z" transform="translate(-12.61 -34.95)"/></g><g id="step2"><g id="Step_2" data-name="Step 2"><path d="M258.21,55.61a2.64,2.64,0,0,0-1-2.23,13.43,13.43,0,0,0-3.69-1.64,27.6,27.6,0,0,1-4.23-1.7Q245,47.75,245,43.87a6,6,0,0,1,1.13-3.6,7.45,7.45,0,0,1,3.27-2.47,12.29,12.29,0,0,1,4.77-.89,11.08,11.08,0,0,1,4.75,1,7.56,7.56,0,0,1,3.24,2.72,7.15,7.15,0,0,1,1.16,4h-5.13a3.37,3.37,0,0,0-1.08-2.66,4.42,4.42,0,0,0-3-.94,4.7,4.7,0,0,0-2.92.79,2.5,2.5,0,0,0-1.05,2.09,2.42,2.42,0,0,0,1.22,2,14.26,14.26,0,0,0,3.6,1.54,15.49,15.49,0,0,1,6.38,3.26,6.52,6.52,0,0,1,2,4.85,6,6,0,0,1-2.45,5.07,10.73,10.73,0,0,1-6.58,1.84,12.76,12.76,0,0,1-5.23-1,8.22,8.22,0,0,1-3.59-2.88,7.37,7.37,0,0,1-1.24-4.24h5.14c0,2.74,1.64,4.12,4.92,4.12a4.79,4.79,0,0,0,2.86-.75A2.4,2.4,0,0,0,258.21,55.61Z" transform="translate(-12.61 -34.95)" style="fill:#f6ae2d"/><path d="M272.41,39.1v4.54h3.17v3.63h-3.17V56.5a2.17,2.17,0,0,0,.4,1.47,2,2,0,0,0,1.5.44,7.79,7.79,0,0,0,1.45-.12V62a10,10,0,0,1-3,.45q-5.19,0-5.3-5.25v-10h-2.7V43.64h2.7V39.1Z" transform="translate(-12.61 -34.95)" style="fill:#f6ae2d"/><path d="M286.84,62.48a9.09,9.09,0,0,1-6.63-2.5,8.88,8.88,0,0,1-2.55-6.65v-.47a11.19,11.19,0,0,1,1.08-5,7.89,7.89,0,0,1,3.05-3.38,8.54,8.54,0,0,1,4.5-1.19,7.68,7.68,0,0,1,6,2.39c1.46,1.6,2.18,3.86,2.18,6.79v2H282.67a4.61,4.61,0,0,0,1.44,2.9,4.38,4.38,0,0,0,3.05,1.1,5.33,5.33,0,0,0,4.46-2.07l2.43,2.71a7.41,7.41,0,0,1-3,2.46A9.93,9.93,0,0,1,286.84,62.48Zm-.57-15.2a3.09,3.09,0,0,0-2.38,1,5.12,5.12,0,0,0-1.17,2.85h6.87v-.4a3.65,3.65,0,0,0-.89-2.54A3.16,3.16,0,0,0,286.27,47.28Z" transform="translate(-12.61 -34.95)" style="fill:#f6ae2d"/><path d="M313.89,53.06A11.08,11.08,0,0,1,312,59.9a6.21,6.21,0,0,1-5.24,2.58,5.76,5.76,0,0,1-4.53-1.95v8.71h-4.94V43.64h4.58l.18,1.82a5.78,5.78,0,0,1,4.68-2.16A6.26,6.26,0,0,1,312,45.83a11.36,11.36,0,0,1,1.9,7ZM309,52.7a7.26,7.26,0,0,0-.91-4,3,3,0,0,0-2.66-1.4,3.23,3.23,0,0,0-3.2,1.78v7.57a3.29,3.29,0,0,0,3.23,1.83C307.77,58.5,309,56.56,309,52.7Z" transform="translate(-12.61 -34.95)" style="fill:#f6ae2d"/><path d="M342.52,62.14H325.46V58.75l8.05-8.58A20.25,20.25,0,0,0,336,47a5.07,5.07,0,0,0,.8-2.56,3.79,3.79,0,0,0-.84-2.61,3,3,0,0,0-2.39-1,3.25,3.25,0,0,0-2.64,1.16,4.52,4.52,0,0,0-1,3h-5a8.16,8.16,0,0,1,1.09-4.15,7.59,7.59,0,0,1,3.07-3,9.34,9.34,0,0,1,4.49-1.07,8.8,8.8,0,0,1,6,1.85A6.51,6.51,0,0,1,341.71,44a8.48,8.48,0,0,1-.95,3.76,21.25,21.25,0,0,1-3.29,4.46l-5.65,6h10.7Z" transform="translate(-12.61 -34.95)" style="fill:#f6ae2d"/></g><path d="M136.13,442.08c16.13,8.44,31.37,18.46,49.77,21.18,9.14,1.36,17.86.35,26.85-1.51,6.94-1.44,14.22-2.22,21-4.42,22.51-7.36,39-27.56,52-46.31,17-24.44,29.11-51.67,37-80.34a220.27,220.27,0,0,0,7.45-41.21c1.17-15.15.75-30.51,1.19-45.69.5-17.11.79-34.17.08-51.28-.36-8.53.15-22-6.28-28.68-2.32-2.42-6,1.29-3.68,3.68,2.14,2.18,2.77,5.79,3.34,8.66a107.88,107.88,0,0,1,1.67,15.74c.71,13.95,0,28-.32,41.95-.63,27.85.68,56.09-5.26,83.46-6,27.65-16.74,54.53-30.59,79.17C278.69,417.2,263,438.69,241.54,450.1a51.94,51.94,0,0,1-15.35,5.41c-10.22,1.83-20.66,4.93-31.09,4.88-20.23-.09-40.79-10.17-57.7-20.5-1.39-.85-2.72,1.44-1.27,2.19Z" transform="translate(-12.61 -34.95)" style="fill:#f6ae2d"/><path d="M134.35,440.66c.7,3.85,1.39,9.3,3.83,12.48.69.9,2.53.78,2.42-.66-.15-2.08-1.06-4-1.66-6-.65-2.18-1.17-4.39-1.61-6.63-.38-2-3.33-1.12-3,.83Z" transform="translate(-12.61 -34.95)" style="fill:#f6ae2d"/><path d="M137.52,441.51a37.78,37.78,0,0,0,8.72-3.32c2.33-1.27,5-2.49,6-5.12a1.31,1.31,0,0,0-1.25-1.65c-2.55-.23-4.94,1.66-7.08,2.83-2.62,1.42-5,3-7.54,4.56a1.48,1.48,0,0,0,1.13,2.7Z" transform="translate(-12.61 -34.95)" style="fill:#f6ae2d"/><polyline points="389.78 123.02 389.78 125.77 387.02 125.77" style="fill:none;stroke:#f6ae2d;stroke-miterlimit:10;stroke-width:1.9922129527606953px"/><line x1="383.74" y1="125.77" x2="374.95" y2="125.77" style="fill:none;stroke:#f6ae2d;stroke-miterlimit:10;stroke-width:1.9922129527606953px;stroke-dasharray:0.01991453766822815,5.47947359085083,3.293658494949341,0"/><line x1="374.95" y1="125.77" x2="234.42" y2="125.77" style="fill:none;stroke:#f6ae2d;stroke-miterlimit:10;stroke-width:1.9922129527606953px;stroke-dasharray:5.489430904388428,3.283701181411743,0.01991453766822815,5.47947359085083,3.293658494949341,0"/><polyline points="234.42 125.77 231.66 125.77 231.66 123.02" style="fill:none;stroke:#f6ae2d;stroke-miterlimit:10;stroke-width:1.9922129527606953px"/><line x1="231.66" y1="119.91" x2="231.66" y2="111.58" style="fill:none;stroke:#f6ae2d;stroke-miterlimit:10;stroke-width:1.9922129527606953px;stroke-dasharray:0.01885647140443325,5.188347339630127,3.1186652183532715,0"/><line x1="231.66" y1="111.58" x2="231.66" y2="45.05" style="fill:none;stroke:#f6ae2d;stroke-miterlimit:10;stroke-width:1.9922129527606953px;stroke-dasharray:5.197775363922119,3.1092369556427,0.01885647140443325,5.188347339630127,3.1186652183532715,0"/><polyline points="231.66 45.05 231.66 42.29 234.42 42.29" style="fill:none;stroke:#f6ae2d;stroke-miterlimit:10;stroke-width:1.9922129527606953px"/><line x1="237.7" y1="42.29" x2="246.49" y2="42.29" style="fill:none;stroke:#f6ae2d;stroke-miterlimit:10;stroke-width:1.9922129527606953px;stroke-dasharray:0.01991453766822815,5.47947359085083,3.293658494949341,0"/><line x1="246.49" y1="42.29" x2="387.02" y2="42.29" style="fill:none;stroke:#f6ae2d;stroke-miterlimit:10;stroke-width:1.9922129527606953px;stroke-dasharray:5.489430904388428,3.283701181411743,0.01991453766822815,5.47947359085083,3.293658494949341,0"/><polyline points="387.02 42.29 389.78 42.29 389.78 45.05" style="fill:none;stroke:#f6ae2d;stroke-miterlimit:10;stroke-width:1.9922129527606953px"/><line x1="389.78" y1="48.16" x2="389.78" y2="56.48" style="fill:none;stroke:#f6ae2d;stroke-miterlimit:10;stroke-width:1.9922129527606953px;stroke-dasharray:0.01885647140443325,5.188347339630127,3.1186652183532715,0"/><line x1="389.78" y1="56.48" x2="389.78" y2="123.02" style="fill:none;stroke:#f6ae2d;stroke-miterlimit:10;stroke-width:1.9922129527606953px;stroke-dasharray:5.197775363922119,3.1092369556427,0.01885647140443325,5.188347339630127,3.1186652183532715,0"/><path d="M273.78,103.77h-4.11l-.78,2.34H266.4l4.23-11.37h2.17l4.26,11.37h-2.49Zm-3.48-1.9h2.85l-1.43-4.26Z" transform="translate(-12.61 -34.95)"/><path d="M277.62,101.82a5.09,5.09,0,0,1,.89-3.14,2.86,2.86,0,0,1,2.43-1.18,2.56,2.56,0,0,1,2,.93V94.11h2.27v12h-2l-.11-.9a2.63,2.63,0,0,1-2.17,1.06,2.87,2.87,0,0,1-2.4-1.18A5.25,5.25,0,0,1,277.62,101.82Zm2.26.17a3.42,3.42,0,0,0,.41,1.83,1.36,1.36,0,0,0,1.21.63,1.5,1.5,0,0,0,1.47-.89v-3.34a1.48,1.48,0,0,0-1.46-.88C280.42,99.34,279.88,100.22,279.88,102Z" transform="translate(-12.61 -34.95)"/><path d="M286.64,101.82a5.09,5.09,0,0,1,.88-3.14A2.88,2.88,0,0,1,290,97.5a2.59,2.59,0,0,1,2,.93V94.11h2.27v12h-2l-.11-.9a2.66,2.66,0,0,1-2.17,1.06,2.86,2.86,0,0,1-2.4-1.18A5.25,5.25,0,0,1,286.64,101.82Zm2.26.17a3.33,3.33,0,0,0,.41,1.83,1.36,1.36,0,0,0,1.2.63,1.52,1.52,0,0,0,1.48-.89v-3.34a1.49,1.49,0,0,0-1.46-.88C289.44,99.34,288.9,100.22,288.9,102Z" transform="translate(-12.61 -34.95)"/><path d="M304.89,106.11a2.37,2.37,0,0,1-.23-.75,2.77,2.77,0,0,1-2.13.91,3,3,0,0,1-2.06-.72,2.32,2.32,0,0,1-.82-1.81,2.39,2.39,0,0,1,1-2.06,4.85,4.85,0,0,1,2.88-.73h1v-.49a1.37,1.37,0,0,0-.3-.93,1.17,1.17,0,0,0-.95-.35,1.38,1.38,0,0,0-.9.27.94.94,0,0,0-.32.75h-2.26a2.29,2.29,0,0,1,.45-1.36,3,3,0,0,1,1.29-1,4.59,4.59,0,0,1,1.85-.36,3.73,3.73,0,0,1,2.49.79,2.75,2.75,0,0,1,.91,2.21v3.66a4.08,4.08,0,0,0,.34,1.82v.13ZM303,104.54a1.92,1.92,0,0,0,.92-.22,1.52,1.52,0,0,0,.63-.6v-1.45h-.85q-1.7,0-1.8,1.17v.13a.89.89,0,0,0,.3.7A1.17,1.17,0,0,0,303,104.54Z" transform="translate(-12.61 -34.95)"/><path d="M313.15,103.78a.72.72,0,0,0-.41-.65,4.59,4.59,0,0,0-1.32-.43c-2-.42-3-1.28-3-2.56a2.31,2.31,0,0,1,.94-1.88,3.77,3.77,0,0,1,2.44-.76,4.07,4.07,0,0,1,2.57.76,2.38,2.38,0,0,1,1,2h-2.26a1.09,1.09,0,0,0-.31-.8,1.34,1.34,0,0,0-1-.32,1.36,1.36,0,0,0-.88.26.81.81,0,0,0-.31.66.67.67,0,0,0,.35.6,3.51,3.51,0,0,0,1.2.4,9.48,9.48,0,0,1,1.42.38,2.34,2.34,0,0,1,1.79,2.27,2.2,2.2,0,0,1-1,1.87,4.26,4.26,0,0,1-2.56.72,4.52,4.52,0,0,1-1.89-.38,3.12,3.12,0,0,1-1.29-1,2.35,2.35,0,0,1-.47-1.42h2.14a1.2,1.2,0,0,0,.44.92,1.81,1.81,0,0,0,1.11.32,1.57,1.57,0,0,0,1-.25A.75.75,0,0,0,313.15,103.78Z" transform="translate(-12.61 -34.95)"/><path d="M321.37,103.78a.7.7,0,0,0-.41-.65,4.4,4.4,0,0,0-1.31-.43c-2-.42-3-1.28-3-2.56a2.32,2.32,0,0,1,.93-1.88A3.8,3.8,0,0,1,320,97.5a4.08,4.08,0,0,1,2.58.76,2.4,2.4,0,0,1,1,2h-2.25a1.09,1.09,0,0,0-.32-.8,1.3,1.3,0,0,0-1-.32,1.39,1.39,0,0,0-.89.26.83.83,0,0,0-.31.66.68.68,0,0,0,.36.6,3.36,3.36,0,0,0,1.2.4,9.83,9.83,0,0,1,1.42.38,2.34,2.34,0,0,1,1.79,2.27,2.2,2.2,0,0,1-1,1.87,4.29,4.29,0,0,1-2.57.72,4.48,4.48,0,0,1-1.88-.38,3.22,3.22,0,0,1-1.3-1,2.42,2.42,0,0,1-.47-1.42h2.14a1.21,1.21,0,0,0,.45.92,1.81,1.81,0,0,0,1.11.32,1.59,1.59,0,0,0,1-.25A.76.76,0,0,0,321.37,103.78Z" transform="translate(-12.61 -34.95)"/><path d="M324.67,101.81a5,5,0,0,1,.48-2.24,3.58,3.58,0,0,1,1.4-1.53,4,4,0,0,1,2.11-.54,3.83,3.83,0,0,1,2.79,1,4.16,4.16,0,0,1,1.21,2.84l0,.58a4.42,4.42,0,0,1-1.09,3.12,3.74,3.74,0,0,1-2.91,1.18,3.8,3.8,0,0,1-2.92-1.17,4.49,4.49,0,0,1-1.09-3.19Zm2.26.16a3.16,3.16,0,0,0,.45,1.84,1.48,1.48,0,0,0,1.3.64,1.51,1.51,0,0,0,1.28-.63,3.44,3.44,0,0,0,.46-2A3.14,3.14,0,0,0,330,100a1.51,1.51,0,0,0-1.3-.65,1.48,1.48,0,0,0-1.28.65A3.54,3.54,0,0,0,326.93,102Z" transform="translate(-12.61 -34.95)"/><path d="M337.58,104.45a1.53,1.53,0,0,0,1-.34,1.21,1.21,0,0,0,.4-.92h2.12a2.87,2.87,0,0,1-.47,1.58,3.1,3.1,0,0,1-1.26,1.11,4,4,0,0,1-1.77.39,3.66,3.66,0,0,1-2.86-1.15,4.56,4.56,0,0,1-1-3.19v-.14a4.5,4.5,0,0,1,1-3.12,3.64,3.64,0,0,1,2.86-1.17,3.53,3.53,0,0,1,2.54.91,3.18,3.18,0,0,1,1,2.4H339a1.53,1.53,0,0,0-.4-1.07,1.49,1.49,0,0,0-2.22.16,3.3,3.3,0,0,0-.41,1.87V102a3.43,3.43,0,0,0,.4,1.88A1.38,1.38,0,0,0,337.58,104.45Z" transform="translate(-12.61 -34.95)"/><path d="M342.4,95.47a1.09,1.09,0,0,1,.34-.83,1.25,1.25,0,0,1,.92-.33,1.26,1.26,0,0,1,.92.33,1.09,1.09,0,0,1,.35.83,1.12,1.12,0,0,1-.35.85,1.48,1.48,0,0,1-1.84,0A1.12,1.12,0,0,1,342.4,95.47Zm2.39,10.64h-2.26V97.66h2.26Z" transform="translate(-12.61 -34.95)"/><path d="M351.55,106.11a2.38,2.38,0,0,1-.22-.75,2.77,2.77,0,0,1-2.14.91,3,3,0,0,1-2.06-.72,2.31,2.31,0,0,1-.81-1.81,2.39,2.39,0,0,1,1-2.06,4.9,4.9,0,0,1,2.88-.73h1v-.49a1.37,1.37,0,0,0-.3-.93,1.17,1.17,0,0,0-.95-.35,1.33,1.33,0,0,0-.89.27.92.92,0,0,0-.33.75H346.5a2.3,2.3,0,0,1,.46-1.36,3,3,0,0,1,1.28-1,4.61,4.61,0,0,1,1.86-.36,3.71,3.71,0,0,1,2.48.79,2.75,2.75,0,0,1,.92,2.21v3.66a4,4,0,0,0,.33,1.82v.13Zm-1.87-1.57a1.93,1.93,0,0,0,.93-.22,1.44,1.44,0,0,0,.62-.6v-1.45h-.84c-1.13,0-1.73.39-1.81,1.17v.13a.89.89,0,0,0,.29.7A1.17,1.17,0,0,0,349.68,104.54Z" transform="translate(-12.61 -34.95)"/><path d="M357.93,95.58v2.08h1.45v1.66h-1.45v4.22a1,1,0,0,0,.18.67.93.93,0,0,0,.69.2,4.47,4.47,0,0,0,.67,0v1.71a4.88,4.88,0,0,1-1.37.2,2.16,2.16,0,0,1-2.42-2.4V99.32h-1.24V97.66h1.24V95.58Z" transform="translate(-12.61 -34.95)"/><path d="M360.62,95.47a1.12,1.12,0,0,1,.34-.83,1.46,1.46,0,0,1,1.85,0,1.09,1.09,0,0,1,.34.83,1.12,1.12,0,0,1-.34.85,1.29,1.29,0,0,1-.92.32,1.28,1.28,0,0,1-.92-.32A1.12,1.12,0,0,1,360.62,95.47Zm2.4,10.64h-2.27V97.66H363Z" transform="translate(-12.61 -34.95)"/><path d="M364.53,101.81a5,5,0,0,1,.48-2.24,3.58,3.58,0,0,1,1.4-1.53,4,4,0,0,1,2.11-.54,3.83,3.83,0,0,1,2.79,1,4.16,4.16,0,0,1,1.21,2.84l0,.58a4.42,4.42,0,0,1-1.09,3.12,4.2,4.2,0,0,1-5.83,0,4.49,4.49,0,0,1-1.09-3.19Zm2.26.16a3.16,3.16,0,0,0,.45,1.84,1.48,1.48,0,0,0,1.3.64,1.51,1.51,0,0,0,1.28-.63,3.44,3.44,0,0,0,.46-2,3.14,3.14,0,0,0-.46-1.83,1.51,1.51,0,0,0-1.3-.65,1.48,1.48,0,0,0-1.28.65A3.54,3.54,0,0,0,366.79,102Z" transform="translate(-12.61 -34.95)"/><path d="M376,97.66l.08,1a2.93,2.93,0,0,1,2.42-1.14,2.46,2.46,0,0,1,2,.79,3.69,3.69,0,0,1,.68,2.36v5.46h-2.26v-5.4a1.53,1.53,0,0,0-.31-1,1.44,1.44,0,0,0-1-.32,1.55,1.55,0,0,0-1.43.81v6h-2.26V97.66Z" transform="translate(-12.61 -34.95)"/><path d="M264.17,125.31v-6.79h-1.26v-1.66h1.26v-.72a2.91,2.91,0,0,1,.82-2.21,3.15,3.15,0,0,1,2.28-.78,5,5,0,0,1,1.15.16l0,1.75a2.77,2.77,0,0,0-.69-.07c-.85,0-1.27.39-1.27,1.19v.68h1.67v1.66h-1.67v6.79Z" transform="translate(-12.61 -34.95)"/><path d="M268.94,121a5,5,0,0,1,.48-2.24,3.56,3.56,0,0,1,1.39-1.53,4.1,4.1,0,0,1,2.12-.54,3.83,3.83,0,0,1,2.79,1,4.25,4.25,0,0,1,1.21,2.84v.58a4.42,4.42,0,0,1-1.08,3.12,4.22,4.22,0,0,1-5.84,0,4.53,4.53,0,0,1-1.08-3.19Zm2.25.16a3.09,3.09,0,0,0,.46,1.84,1.62,1.62,0,0,0,2.57,0,3.43,3.43,0,0,0,.47-2,3.13,3.13,0,0,0-.47-1.83,1.49,1.49,0,0,0-1.29-.65,1.48,1.48,0,0,0-1.28.65A3.46,3.46,0,0,0,271.19,121.17Z" transform="translate(-12.61 -34.95)"/><path d="M283.08,119a6.19,6.19,0,0,0-.81-.06,1.65,1.65,0,0,0-1.68.86v5.53h-2.26v-8.45h2.14l.06,1a2.09,2.09,0,0,1,1.88-1.17,2.23,2.23,0,0,1,.7.11Z" transform="translate(-12.61 -34.95)"/><path d="M292,125.47a4.15,4.15,0,0,1-3-1.14,4,4,0,0,1-1.17-3v-.22a5.09,5.09,0,0,1,.49-2.28,3.61,3.61,0,0,1,1.4-1.54,3.9,3.9,0,0,1,2.05-.55,3.5,3.5,0,0,1,2.73,1.1,4.41,4.41,0,0,1,1,3.1v.92h-5.38a2.07,2.07,0,0,0,.66,1.33,2,2,0,0,0,1.39.5,2.44,2.44,0,0,0,2-1l1.11,1.25a3.44,3.44,0,0,1-1.37,1.12A4.5,4.5,0,0,1,292,125.47Zm-.25-7a1.43,1.43,0,0,0-1.09.46,2.36,2.36,0,0,0-.54,1.3h3.14v-.18a1.66,1.66,0,0,0-.4-1.16A1.44,1.44,0,0,0,291.79,118.52Z" transform="translate(-12.61 -34.95)"/><path d="M299.86,122.56l1.57-5.7h2.36l-2.85,8.45h-2.15l-2.85-8.45h2.35Z" transform="translate(-12.61 -34.95)"/><path d="M308.68,125.47a4.16,4.16,0,0,1-3-1.14,4,4,0,0,1-1.17-3v-.22a5.23,5.23,0,0,1,.49-2.28,3.67,3.67,0,0,1,1.4-1.54,3.94,3.94,0,0,1,2.06-.55,3.53,3.53,0,0,1,2.73,1.1,4.46,4.46,0,0,1,1,3.1v.92h-5.38a2.07,2.07,0,0,0,.66,1.33,2,2,0,0,0,1.4.5,2.41,2.41,0,0,0,2-1L312,124a3.38,3.38,0,0,1-1.37,1.12A4.49,4.49,0,0,1,308.68,125.47Zm-.26-7a1.43,1.43,0,0,0-1.09.46,2.36,2.36,0,0,0-.54,1.3h3.14v-.18a1.66,1.66,0,0,0-.4-1.16A1.44,1.44,0,0,0,308.42,118.52Z" transform="translate(-12.61 -34.95)"/><path d="M318.18,119a6.19,6.19,0,0,0-.81-.06,1.65,1.65,0,0,0-1.68.86v5.53h-2.26v-8.45h2.14l.06,1a2.09,2.09,0,0,1,1.88-1.17,2.35,2.35,0,0,1,.71.11Z" transform="translate(-12.61 -34.95)"/><path d="M322.43,122.12l1.56-5.26h2.42l-3.4,9.77-.18.44a2.58,2.58,0,0,1-2.5,1.66,3.46,3.46,0,0,1-1-.15v-1.71h.34a1.86,1.86,0,0,0,1-.2,1.29,1.29,0,0,0,.49-.65l.27-.69-3-8.48h2.43Z" transform="translate(-12.61 -34.95)"/><path d="M333.36,116.86l.07,1a3,3,0,0,1,2.43-1.14,2.46,2.46,0,0,1,2,.79,3.69,3.69,0,0,1,.68,2.36v5.46h-2.26v-5.4a1.53,1.53,0,0,0-.31-1,1.44,1.44,0,0,0-1-.32,1.54,1.54,0,0,0-1.43.81v6h-2.26v-8.45Z" transform="translate(-12.61 -34.95)"/><path d="M345.31,124.45a2.83,2.83,0,0,1-2.31,1,2.69,2.69,0,0,1-2.08-.78,3.38,3.38,0,0,1-.73-2.29v-5.54h2.26v5.47q0,1.32,1.2,1.32a1.63,1.63,0,0,0,1.58-.8v-6h2.27v8.45h-2.13Z" transform="translate(-12.61 -34.95)"/><path d="M351.32,116.86l.07,1a3,3,0,0,1,2.43-1.11,2.25,2.25,0,0,1,2.24,1.29,2.9,2.9,0,0,1,2.54-1.29,2.54,2.54,0,0,1,2,.8,3.76,3.76,0,0,1,.67,2.42v5.39h-2.27v-5.39a1.59,1.59,0,0,0-.28-1,1.25,1.25,0,0,0-1-.33,1.41,1.41,0,0,0-1.41,1v5.8h-2.26v-5.38a1.54,1.54,0,0,0-.29-1.06,1.24,1.24,0,0,0-1-.33,1.46,1.46,0,0,0-1.39.8v6H349.2v-8.45Z" transform="translate(-12.61 -34.95)"/><path d="M370.67,121.17a5.07,5.07,0,0,1-.87,3.16,2.86,2.86,0,0,1-2.42,1.14,2.65,2.65,0,0,1-2.2-1l-.1.89h-2v-12h2.26v4.31a2.58,2.58,0,0,1,2.05-.92,2.9,2.9,0,0,1,2.43,1.14,5.12,5.12,0,0,1,.88,3.2Zm-2.26-.17a3.28,3.28,0,0,0-.41-1.87,1.37,1.37,0,0,0-1.21-.59,1.49,1.49,0,0,0-1.48.88v3.34a1.52,1.52,0,0,0,1.5.89,1.4,1.4,0,0,0,1.44-1.08A5.56,5.56,0,0,0,368.41,121Z" transform="translate(-12.61 -34.95)"/><path d="M376,125.47a4.16,4.16,0,0,1-3-1.14,4,4,0,0,1-1.17-3v-.22a5.09,5.09,0,0,1,.5-2.28,3.65,3.65,0,0,1,1.39-1.54,3.94,3.94,0,0,1,2.06-.55,3.5,3.5,0,0,1,2.73,1.1,4.46,4.46,0,0,1,1,3.1v.92H374a2.17,2.17,0,0,0,.66,1.33,2,2,0,0,0,1.4.5,2.44,2.44,0,0,0,2-1l1.11,1.25a3.41,3.41,0,0,1-1.38,1.12A4.49,4.49,0,0,1,376,125.47Zm-.26-7a1.43,1.43,0,0,0-1.09.46,2.35,2.35,0,0,0-.53,1.3h3.14v-.18a1.66,1.66,0,0,0-.41-1.16A1.44,1.44,0,0,0,375.69,118.52Z" transform="translate(-12.61 -34.95)"/><path d="M385.46,119a6.44,6.44,0,0,0-.81-.06,1.64,1.64,0,0,0-1.68.86v5.53h-2.26v-8.45h2.13l.06,1a2.1,2.1,0,0,1,1.89-1.17,2.28,2.28,0,0,1,.7.11Z" transform="translate(-12.61 -34.95)"/><path d="M279.12,144.51v-6.79h-1.26v-1.66h1.26v-.72a2.91,2.91,0,0,1,.82-2.21,3.15,3.15,0,0,1,2.28-.78,5,5,0,0,1,1.15.16l0,1.75a2.77,2.77,0,0,0-.69-.07c-.85,0-1.28.39-1.28,1.19v.68h1.68v1.66h-1.68v6.79Z" transform="translate(-12.61 -34.95)"/><path d="M289,138.18a6.64,6.64,0,0,0-.82-.07,1.66,1.66,0,0,0-1.68.87v5.53h-2.25v-8.45h2.13l.06,1a2.09,2.09,0,0,1,1.88-1.17,2.35,2.35,0,0,1,.71.11Z" transform="translate(-12.61 -34.95)"/><path d="M289.44,140.21a5,5,0,0,1,.48-2.24,3.58,3.58,0,0,1,1.4-1.53,4,4,0,0,1,2.11-.54,3.83,3.83,0,0,1,2.79,1,4.16,4.16,0,0,1,1.21,2.84l0,.58a4.42,4.42,0,0,1-1.09,3.12,3.74,3.74,0,0,1-2.91,1.18,3.8,3.8,0,0,1-2.92-1.17,4.49,4.49,0,0,1-1.09-3.19Zm2.26.16a3.16,3.16,0,0,0,.45,1.84,1.48,1.48,0,0,0,1.3.64,1.51,1.51,0,0,0,1.28-.63,3.44,3.44,0,0,0,.46-2,3.14,3.14,0,0,0-.46-1.83,1.51,1.51,0,0,0-1.3-.65,1.48,1.48,0,0,0-1.28.65A3.54,3.54,0,0,0,291.7,140.37Z" transform="translate(-12.61 -34.95)"/><path d="M301,136.06l.07.95a3,3,0,0,1,2.43-1.11,2.27,2.27,0,0,1,2.25,1.29,2.9,2.9,0,0,1,2.54-1.29,2.53,2.53,0,0,1,2,.8,3.69,3.69,0,0,1,.67,2.41v5.4h-2.26v-5.39a1.65,1.65,0,0,0-.28-1.05,1.25,1.25,0,0,0-1-.33,1.41,1.41,0,0,0-1.41,1v5.8h-2.26v-5.38a1.6,1.6,0,0,0-.29-1.06,1.24,1.24,0,0,0-1-.33,1.48,1.48,0,0,0-1.4.8v6h-2.25v-8.45Z" transform="translate(-12.61 -34.95)"/><path d="M324.24,139.81a5.77,5.77,0,0,1-1,3.61,3.9,3.9,0,0,1-5.7,0,5.52,5.52,0,0,1-1-3.51v-2.1a5.67,5.67,0,0,1,1-3.61,3.4,3.4,0,0,1,2.84-1.24,3.47,3.47,0,0,1,2.85,1.22,5.67,5.67,0,0,1,1,3.52Zm-2.26-2.3a4.12,4.12,0,0,0-.39-2.06,1.31,1.31,0,0,0-1.21-.65,1.28,1.28,0,0,0-1.17.62,3.87,3.87,0,0,0-.4,1.92v2.76a4.42,4.42,0,0,0,.37,2.07,1.31,1.31,0,0,0,1.22.68,1.26,1.26,0,0,0,1.19-.65,4.17,4.17,0,0,0,.39-2Z" transform="translate(-12.61 -34.95)"/><path d="M333.42,139.81a5.77,5.77,0,0,1-1,3.61,3.9,3.9,0,0,1-5.7,0,5.52,5.52,0,0,1-1-3.51v-2.1a5.67,5.67,0,0,1,1-3.61,3.4,3.4,0,0,1,2.84-1.24,3.47,3.47,0,0,1,2.85,1.22,5.67,5.67,0,0,1,1,3.52Zm-2.26-2.3a4.12,4.12,0,0,0-.39-2.06,1.31,1.31,0,0,0-1.21-.65,1.28,1.28,0,0,0-1.17.62,3.77,3.77,0,0,0-.4,1.92v2.76a4.42,4.42,0,0,0,.37,2.07,1.31,1.31,0,0,0,1.22.68,1.26,1.26,0,0,0,1.19-.65,4.17,4.17,0,0,0,.39-2Z" transform="translate(-12.61 -34.95)"/><path d="M341.72,134v2.08h1.45v1.66h-1.45v4.22a1,1,0,0,0,.18.67.93.93,0,0,0,.69.2,4.23,4.23,0,0,0,.66-.05v1.71a4.83,4.83,0,0,1-1.37.2,2.16,2.16,0,0,1-2.42-2.4v-4.55h-1.23v-1.66h1.23V134Z" transform="translate(-12.61 -34.95)"/><path d="M343.84,140.21a5,5,0,0,1,.48-2.24,3.52,3.52,0,0,1,1.4-1.53,4,4,0,0,1,2.11-.54,3.83,3.83,0,0,1,2.79,1,4.21,4.21,0,0,1,1.21,2.84v.58a4.42,4.42,0,0,1-1.08,3.12,4.2,4.2,0,0,1-5.83,0,4.49,4.49,0,0,1-1.09-3.19Zm2.25.16a3.16,3.16,0,0,0,.46,1.84,1.47,1.47,0,0,0,1.29.64,1.51,1.51,0,0,0,1.29-.63,3.52,3.52,0,0,0,.46-2,3.21,3.21,0,0,0-.46-1.83,1.51,1.51,0,0,0-1.3-.65,1.48,1.48,0,0,0-1.28.65A3.54,3.54,0,0,0,346.09,140.37Z" transform="translate(-12.61 -34.95)"/><path d="M362.41,140a2.89,2.89,0,0,1-2.07.86,3.05,3.05,0,0,1-2.41-1A4.11,4.11,0,0,1,357,137a4.47,4.47,0,0,1,.49-2.06,3.61,3.61,0,0,1,1.37-1.45,3.83,3.83,0,0,1,2-.52,3.65,3.65,0,0,1,2,.56,3.69,3.69,0,0,1,1.36,1.62,5.78,5.78,0,0,1,.5,2.42v.83a6.59,6.59,0,0,1-1.42,4.47,5.34,5.34,0,0,1-4,1.73h-.55v-1.88h.5C361.18,142.64,362.25,141.72,362.41,140Zm-1.51-.86a1.63,1.63,0,0,0,.94-.28,2,2,0,0,0,.6-.68v-.93a3.1,3.1,0,0,0-.44-1.78,1.36,1.36,0,0,0-2.29,0,2.68,2.68,0,0,0-.44,1.56,2.61,2.61,0,0,0,.43,1.53A1.38,1.38,0,0,0,360.9,139.11Z" transform="translate(-12.61 -34.95)"/><path d="M371.59,140a2.89,2.89,0,0,1-2.07.86,3,3,0,0,1-2.41-1,4.11,4.11,0,0,1-.91-2.79,4.47,4.47,0,0,1,.49-2.06,3.61,3.61,0,0,1,1.37-1.45,3.8,3.8,0,0,1,2-.52,3.65,3.65,0,0,1,2,.56,3.69,3.69,0,0,1,1.36,1.62,5.78,5.78,0,0,1,.5,2.42v.83a6.59,6.59,0,0,1-1.42,4.47,5.34,5.34,0,0,1-4,1.73h-.55v-1.88h.5C370.36,142.64,371.43,141.72,371.59,140Zm-1.51-.86a1.63,1.63,0,0,0,.94-.28,2,2,0,0,0,.6-.68v-.93a3.1,3.1,0,0,0-.44-1.78,1.36,1.36,0,0,0-2.29,0,2.68,2.68,0,0,0-.44,1.56,2.61,2.61,0,0,0,.43,1.53A1.38,1.38,0,0,0,370.08,139.11Z" transform="translate(-12.61 -34.95)"/></g><g id="bonus"><path d="M245.69,553.67V540.88h4.48a5.84,5.84,0,0,1,3.53.89,3,3,0,0,1,1.21,2.61,2.92,2.92,0,0,1-.48,1.66,2.83,2.83,0,0,1-1.35,1.05,2.71,2.71,0,0,1,1.55,1,2.94,2.94,0,0,1,.57,1.83,3.38,3.38,0,0,1-1.18,2.8,5.29,5.29,0,0,1-3.36,1Zm2.64-7.43h1.95c1.33,0,2-.56,2-1.59a1.51,1.51,0,0,0-.5-1.26,2.71,2.71,0,0,0-1.6-.38h-1.84Zm0,1.86v3.46h2.25a2.16,2.16,0,0,0,1.46-.45,1.5,1.5,0,0,0,.52-1.22,1.61,1.61,0,0,0-1.82-1.79Z" transform="translate(-12.61 -34.95)"/><path d="M256.61,548.83a5.69,5.69,0,0,1,.55-2.52,4,4,0,0,1,1.57-1.72,4.59,4.59,0,0,1,2.37-.6,4.32,4.32,0,0,1,3.15,1.18,4.7,4.7,0,0,1,1.35,3.2l0,.65a5,5,0,0,1-1.22,3.51,4.74,4.74,0,0,1-6.56,0,5,5,0,0,1-1.23-3.58Zm2.54.18a3.51,3.51,0,0,0,.51,2.07,1.68,1.68,0,0,0,1.46.72,1.65,1.65,0,0,0,1.44-.71,3.82,3.82,0,0,0,.52-2.26,3.46,3.46,0,0,0-.52-2.06,1.81,1.81,0,0,0-2.9,0A4,4,0,0,0,259.15,549Z" transform="translate(-12.61 -34.95)"/><path d="M269.52,544.16l.08,1.1a3.32,3.32,0,0,1,2.74-1.27,2.73,2.73,0,0,1,2.25.89,4.12,4.12,0,0,1,.75,2.65v6.14H272.8v-6.08a1.61,1.61,0,0,0-.35-1.17,1.58,1.58,0,0,0-1.17-.37,1.76,1.76,0,0,0-1.61.92v6.7h-2.54v-9.51Z" transform="translate(-12.61 -34.95)"/><path d="M283,552.71a3.17,3.17,0,0,1-2.6,1.14A3,3,0,0,1,278,553a3.72,3.72,0,0,1-.82-2.57v-6.24h2.54v6.15c0,1,.45,1.49,1.35,1.49a1.85,1.85,0,0,0,1.78-.9v-6.74h2.54v9.51H283Z" transform="translate(-12.61 -34.95)"/><path d="M292.49,551.05a.82.82,0,0,0-.46-.74,5.19,5.19,0,0,0-1.48-.48q-3.39-.71-3.39-2.88a2.6,2.6,0,0,1,1-2.11A4.19,4.19,0,0,1,291,544a4.55,4.55,0,0,1,2.9.85,2.7,2.7,0,0,1,1.08,2.22h-2.54a1.22,1.22,0,0,0-.35-.91,1.51,1.51,0,0,0-1.1-.35,1.56,1.56,0,0,0-1,.29.92.92,0,0,0-.35.74.77.77,0,0,0,.4.68,4.34,4.34,0,0,0,1.35.45,10.44,10.44,0,0,1,1.6.42,2.64,2.64,0,0,1,2,2.56,2.45,2.45,0,0,1-1.12,2.1,4.77,4.77,0,0,1-2.88.81,4.93,4.93,0,0,1-2.12-.43,3.55,3.55,0,0,1-1.46-1.17,2.7,2.7,0,0,1-.52-1.6h2.41a1.32,1.32,0,0,0,.5,1,2,2,0,0,0,1.24.36,1.82,1.82,0,0,0,1.11-.28A.85.85,0,0,0,292.49,551.05Z" transform="translate(-12.61 -34.95)"/><path d="M296.72,545.23a1.27,1.27,0,0,1,.41-1,1.6,1.6,0,0,1,2.05,0,1.27,1.27,0,0,1,.41,1,1.25,1.25,0,0,1-.4,1,1.47,1.47,0,0,1-1,.37,1.45,1.45,0,0,1-1-.37A1.25,1.25,0,0,1,296.72,545.23Zm0,7.2a1.26,1.26,0,0,1,.41-1,1.57,1.57,0,0,1,2.05,0,1.39,1.39,0,0,1,0,2,1.47,1.47,0,0,1-1,.37,1.45,1.45,0,0,1-1-.37A1.27,1.27,0,0,1,296.72,552.43Z" transform="translate(-12.61 -34.95)"/><path d="M308.18,553.67h-1.63v-13.5h1.63Z" transform="translate(-12.61 -34.95)"/><path d="M314.73,553.85a4.15,4.15,0,0,1-3.15-1.27,4.72,4.72,0,0,1-1.21-3.4v-.3a5.69,5.69,0,0,1,.54-2.52,4.21,4.21,0,0,1,1.51-1.74,3.81,3.81,0,0,1,2.11-.63,3.58,3.58,0,0,1,2.88,1.22,5.31,5.31,0,0,1,1,3.5v.67H312a3.41,3.41,0,0,0,.83,2.28,2.59,2.59,0,0,0,2,.86,2.73,2.73,0,0,0,1.45-.35,3.56,3.56,0,0,0,1.05-.93l1,.77A4,4,0,0,1,314.73,553.85Zm-.2-8.53a2.18,2.18,0,0,0-1.66.72,3.49,3.49,0,0,0-.82,2h4.76v-.12a3.09,3.09,0,0,0-.67-1.92A2,2,0,0,0,314.53,545.32Z" transform="translate(-12.61 -34.95)"/><path d="M326.19,553.67a3.18,3.18,0,0,1-.23-1,3.62,3.62,0,0,1-2.71,1.18,3.35,3.35,0,0,1-2.3-.8,2.54,2.54,0,0,1-.91-2,2.7,2.7,0,0,1,1.13-2.31,5.34,5.34,0,0,1,3.18-.82h1.58v-.75a1.83,1.83,0,0,0-.51-1.36,2.07,2.07,0,0,0-1.5-.5,2.33,2.33,0,0,0-1.46.44,1.29,1.29,0,0,0-.59,1.06h-1.63a2.27,2.27,0,0,1,.5-1.37,3.38,3.38,0,0,1,1.37-1A4.63,4.63,0,0,1,324,544a3.74,3.74,0,0,1,2.57.82,3,3,0,0,1,1,2.26v4.38a5.38,5.38,0,0,0,.33,2.08v.14Zm-2.7-1.24a2.9,2.9,0,0,0,1.45-.39,2.33,2.33,0,0,0,1-1v-2h-1.27c-2,0-3,.58-3,1.75a1.46,1.46,0,0,0,.51,1.19A2,2,0,0,0,323.49,552.43Z" transform="translate(-12.61 -34.95)"/><path d="M334.71,545.62a5.1,5.1,0,0,0-.8-.06,2.17,2.17,0,0,0-2.18,1.36v6.75h-1.62v-9.51h1.58l0,1.1A2.52,2.52,0,0,1,334,544a1.75,1.75,0,0,1,.73.12Z" transform="translate(-12.61 -34.95)"/><path d="M337.74,544.16l.05,1.2a3.49,3.49,0,0,1,2.85-1.37q3,0,3,3.4v6.28h-1.63v-6.29a2.16,2.16,0,0,0-.47-1.52,1.86,1.86,0,0,0-1.43-.49,2.36,2.36,0,0,0-1.39.42,2.8,2.8,0,0,0-.93,1.11v6.77H336.2v-9.51Z" transform="translate(-12.61 -34.95)"/><path d="M352.79,541.86v2.3h1.78v1.26h-1.78v5.91a1.29,1.29,0,0,0,.24.85,1,1,0,0,0,.81.29,4,4,0,0,0,.77-.11v1.31a4.61,4.61,0,0,1-1.25.18,2,2,0,0,1-1.64-.66,2.82,2.82,0,0,1-.55-1.87v-5.9h-1.73v-1.26h1.73v-2.3Z" transform="translate(-12.61 -34.95)"/><path d="M355.86,548.83a5.54,5.54,0,0,1,.55-2.51,4,4,0,0,1,3.77-2.33,4,4,0,0,1,3.14,1.34,5.18,5.18,0,0,1,1.2,3.58V549a5.77,5.77,0,0,1-.53,2.5,4.1,4.1,0,0,1-1.53,1.71,4.17,4.17,0,0,1-2.27.62,4,4,0,0,1-3.13-1.35,5.12,5.12,0,0,1-1.2-3.55Zm1.64.19a4,4,0,0,0,.73,2.54,2.34,2.34,0,0,0,2,1,2.32,2.32,0,0,0,2-1,4.42,4.42,0,0,0,.73-2.72,4.12,4.12,0,0,0-.74-2.54,2.38,2.38,0,0,0-2-1,2.35,2.35,0,0,0-1.95,1A4.43,4.43,0,0,0,357.5,549Z" transform="translate(-12.61 -34.95)"/><path d="M372.54,544.16l0,1.06a3.49,3.49,0,0,1,2.82-1.23,2.71,2.71,0,0,1,2.71,1.53,3.59,3.59,0,0,1,1.24-1.11,3.63,3.63,0,0,1,1.8-.42q3.12,0,3.18,3.31v6.37h-1.63V547.4a2.2,2.2,0,0,0-.46-1.53,2.11,2.11,0,0,0-1.57-.5,2.16,2.16,0,0,0-1.5.54,2.2,2.2,0,0,0-.7,1.45v6.31h-1.63v-6.23a1.81,1.81,0,0,0-2-2.07,2.17,2.17,0,0,0-2.19,1.36v6.94H371v-9.51Z" transform="translate(-12.61 -34.95)"/><path d="M390.74,553.85a4.15,4.15,0,0,1-3.15-1.27,4.72,4.72,0,0,1-1.21-3.4v-.3a5.69,5.69,0,0,1,.54-2.52,4.21,4.21,0,0,1,1.51-1.74,3.8,3.8,0,0,1,2.1-.63,3.59,3.59,0,0,1,2.89,1.22,5.31,5.31,0,0,1,1,3.5v.67H388a3.46,3.46,0,0,0,.82,2.28,2.61,2.61,0,0,0,2,.86,2.77,2.77,0,0,0,1.46-.35,3.56,3.56,0,0,0,1.05-.93l1,.77A4,4,0,0,1,390.74,553.85Zm-.21-8.53a2.18,2.18,0,0,0-1.65.72,3.57,3.57,0,0,0-.83,2h4.77v-.12a3.09,3.09,0,0,0-.67-1.92A2,2,0,0,0,390.53,545.32Z" transform="translate(-12.61 -34.95)"/><path d="M397.85,544.16l0,1.06a3.52,3.52,0,0,1,2.82-1.23,2.72,2.72,0,0,1,2.72,1.53,3.47,3.47,0,0,1,1.23-1.11,3.68,3.68,0,0,1,1.8-.42q3.12,0,3.18,3.31v6.37H408V547.4a2.2,2.2,0,0,0-.46-1.53,2.08,2.08,0,0,0-1.57-.5,2.1,2.1,0,0,0-2.19,2v6.31h-1.64v-6.23a1.81,1.81,0,0,0-2-2.07,2.17,2.17,0,0,0-2.19,1.36v6.94h-1.62v-9.51Z" transform="translate(-12.61 -34.95)"/><path d="M411.67,548.83a5.54,5.54,0,0,1,.55-2.51A4,4,0,0,1,416,544a4,4,0,0,1,3.14,1.34,5.18,5.18,0,0,1,1.2,3.58V549a5.77,5.77,0,0,1-.53,2.5,4.14,4.14,0,0,1-1.52,1.71,4.23,4.23,0,0,1-2.28.62,4,4,0,0,1-3.13-1.35,5.12,5.12,0,0,1-1.2-3.55Zm1.64.19a4,4,0,0,0,.73,2.54,2.34,2.34,0,0,0,2,1,2.32,2.32,0,0,0,2-1,4.42,4.42,0,0,0,.73-2.72,4.12,4.12,0,0,0-.74-2.54,2.38,2.38,0,0,0-2-1,2.35,2.35,0,0,0-1.95,1A4.43,4.43,0,0,0,413.31,549Z" transform="translate(-12.61 -34.95)"/><path d="M427,545.62a4.92,4.92,0,0,0-.8-.06,2.15,2.15,0,0,0-2.17,1.36v6.75h-1.62v-9.51H424l0,1.1a2.51,2.51,0,0,1,2.26-1.27,1.67,1.67,0,0,1,.72.12Z" transform="translate(-12.61 -34.95)"/><path d="M428.47,541.64a1,1,0,0,1,.24-.67.91.91,0,0,1,.71-.27,1,1,0,0,1,.73.27,1,1,0,0,1,.24.67.92.92,0,0,1-.24.66,1,1,0,0,1-.73.26.9.9,0,0,1-.71-.26A.92.92,0,0,1,428.47,541.64Zm1.75,12H428.6v-9.51h1.62Z" transform="translate(-12.61 -34.95)"/><path d="M434.36,552.35h5.56v1.32h-7.55v-1.19l5.25-7h-5.17v-1.35h7.21v1.16Z" transform="translate(-12.61 -34.95)"/><path d="M445.69,553.85a4.13,4.13,0,0,1-3.14-1.27,4.72,4.72,0,0,1-1.22-3.4v-.3a5.69,5.69,0,0,1,.54-2.52,4.23,4.23,0,0,1,1.52-1.74,3.77,3.77,0,0,1,2.1-.63,3.56,3.56,0,0,1,2.88,1.22,5.26,5.26,0,0,1,1,3.5v.67H443a3.41,3.41,0,0,0,.82,2.28,2.61,2.61,0,0,0,2,.86,2.77,2.77,0,0,0,1.46-.35,3.56,3.56,0,0,0,1.05-.93l1,.77A4,4,0,0,1,445.69,553.85Zm-.2-8.53a2.15,2.15,0,0,0-1.65.72,3.5,3.5,0,0,0-.83,2h4.77v-.12a3.09,3.09,0,0,0-.67-1.92A2,2,0,0,0,445.49,545.32Z" transform="translate(-12.61 -34.95)"/><path d="M463.77,549a5.7,5.7,0,0,1-1,3.5,3.17,3.17,0,0,1-2.69,1.33,3.49,3.49,0,0,1-2.72-1.1v4.58h-1.63V544.16h1.48l.08,1.06a3.37,3.37,0,0,1,2.76-1.23,3.23,3.23,0,0,1,2.71,1.29,5.73,5.73,0,0,1,1,3.6Zm-1.62-.18a4.18,4.18,0,0,0-.69-2.54,2.21,2.21,0,0,0-1.88-.93,2.37,2.37,0,0,0-2.21,1.31v4.54a2.38,2.38,0,0,0,2.23,1.3,2.21,2.21,0,0,0,1.86-.92A4.6,4.6,0,0,0,462.15,548.84Z" transform="translate(-12.61 -34.95)"/><path d="M467.6,553.67H466v-13.5h1.62Z" transform="translate(-12.61 -34.95)"/><path d="M476.08,553.67a3.18,3.18,0,0,1-.23-1,3.62,3.62,0,0,1-2.71,1.18,3.36,3.36,0,0,1-2.31-.8,2.57,2.57,0,0,1-.9-2,2.7,2.7,0,0,1,1.13-2.31,5.34,5.34,0,0,1,3.18-.82h1.58v-.75a1.83,1.83,0,0,0-.51-1.36,2.07,2.07,0,0,0-1.5-.5,2.33,2.33,0,0,0-1.46.44,1.29,1.29,0,0,0-.59,1.06h-1.63a2.21,2.21,0,0,1,.5-1.37,3.38,3.38,0,0,1,1.37-1,4.59,4.59,0,0,1,1.91-.39,3.74,3.74,0,0,1,2.57.82,3,3,0,0,1,1,2.26v4.38a5.38,5.38,0,0,0,.33,2.08v.14Zm-2.7-1.24a2.9,2.9,0,0,0,1.45-.39,2.33,2.33,0,0,0,1-1v-2h-1.27c-2,0-3,.58-3,1.75a1.46,1.46,0,0,0,.51,1.19A2,2,0,0,0,473.38,552.43Z" transform="translate(-12.61 -34.95)"/><path d="M483.11,551.29l2.21-7.13h1.74l-3.82,11q-.89,2.37-2.82,2.37l-.31,0-.61-.12v-1.31l.44,0a2.18,2.18,0,0,0,1.29-.33,2.44,2.44,0,0,0,.76-1.22l.36-1L479,544.16h1.78Z" transform="translate(-12.61 -34.95)"/><path d="M488.52,541.64a1,1,0,0,1,.24-.67,1.1,1.1,0,0,1,1.44,0,1,1,0,0,1,.25.67.89.89,0,0,1-.25.66,1.13,1.13,0,0,1-1.44,0A.92.92,0,0,1,488.52,541.64Zm1.76,12h-1.63v-9.51h1.63Z" transform="translate(-12.61 -34.95)"/><path d="M494.42,544.16l.05,1.2a3.49,3.49,0,0,1,2.85-1.37q3,0,3,3.4v6.28h-1.63v-6.29a2.16,2.16,0,0,0-.47-1.52,1.85,1.85,0,0,0-1.43-.49,2.36,2.36,0,0,0-1.39.42,2.8,2.8,0,0,0-.93,1.11v6.77h-1.63v-9.51Z" transform="translate(-12.61 -34.95)"/><path d="M502.43,548.84a5.64,5.64,0,0,1,1-3.54,3.32,3.32,0,0,1,2.73-1.31,3.26,3.26,0,0,1,2.71,1.23l.08-1.06h1.49v9.29a3.87,3.87,0,0,1-1.09,2.9,4.06,4.06,0,0,1-2.95,1.07,5,5,0,0,1-2-.44,3.45,3.45,0,0,1-1.5-1.21l.84-1a3.19,3.19,0,0,0,2.56,1.29,2.47,2.47,0,0,0,1.85-.67,2.55,2.55,0,0,0,.66-1.88v-.82a3.33,3.33,0,0,1-2.66,1.13,3.25,3.25,0,0,1-2.7-1.35A5.83,5.83,0,0,1,502.43,548.84Zm1.63.18a4.25,4.25,0,0,0,.66,2.53,2.15,2.15,0,0,0,1.85.92,2.38,2.38,0,0,0,2.25-1.4v-4.34a2.39,2.39,0,0,0-2.24-1.36,2.16,2.16,0,0,0-1.85.92A4.62,4.62,0,0,0,504.06,549Z" transform="translate(-12.61 -34.95)"/><path d="M521.18,552.52a2.34,2.34,0,0,0,1.52-.52,1.84,1.84,0,0,0,.72-1.32H525a3,3,0,0,1-.56,1.55,3.73,3.73,0,0,1-1.39,1.18,4,4,0,0,1-1.83.44,3.92,3.92,0,0,1-3.09-1.3A5.16,5.16,0,0,1,517,549v-.28a5.77,5.77,0,0,1,.51-2.47,3.72,3.72,0,0,1,1.46-1.67,4.13,4.13,0,0,1,2.25-.6,3.8,3.8,0,0,1,2.66,1,3.39,3.39,0,0,1,1.13,2.48h-1.54a2.19,2.19,0,0,0-.7-1.51,2.15,2.15,0,0,0-1.55-.6,2.28,2.28,0,0,0-1.92.9,4.2,4.2,0,0,0-.68,2.58v.3a4.1,4.1,0,0,0,.68,2.53A2.26,2.26,0,0,0,521.18,552.52Z" transform="translate(-12.61 -34.95)"/><path d="M532.66,553.67a3.5,3.5,0,0,1-.23-1,3.61,3.61,0,0,1-2.71,1.18,3.35,3.35,0,0,1-2.3-.8,2.57,2.57,0,0,1-.9-2,2.68,2.68,0,0,1,1.13-2.31,5.29,5.29,0,0,1,3.17-.82h1.59v-.75a1.83,1.83,0,0,0-.51-1.36,2.1,2.1,0,0,0-1.51-.5,2.34,2.34,0,0,0-1.46.44,1.29,1.29,0,0,0-.59,1.06h-1.63a2.27,2.27,0,0,1,.5-1.37,3.35,3.35,0,0,1,1.38-1,4.55,4.55,0,0,1,1.9-.39,3.74,3.74,0,0,1,2.57.82,2.92,2.92,0,0,1,1,2.26v4.38a5.18,5.18,0,0,0,.34,2.08v.14Zm-2.7-1.24a2.87,2.87,0,0,0,1.45-.39,2.41,2.41,0,0,0,1-1v-2h-1.28c-2,0-3,.58-3,1.75a1.46,1.46,0,0,0,.51,1.19A2,2,0,0,0,530,552.43Z" transform="translate(-12.61 -34.95)"/><path d="M541.18,545.62a5.1,5.1,0,0,0-.8-.06,2.15,2.15,0,0,0-2.17,1.36v6.75h-1.63v-9.51h1.58l0,1.1a2.53,2.53,0,0,1,2.27-1.27,1.73,1.73,0,0,1,.72.12Z" transform="translate(-12.61 -34.95)"/><path d="M542.28,548.84a5.58,5.58,0,0,1,1-3.52,3.53,3.53,0,0,1,5.36-.19v-5h1.63v13.5h-1.49l-.08-1a3.31,3.31,0,0,1-2.72,1.2,3.24,3.24,0,0,1-2.69-1.35,5.62,5.62,0,0,1-1-3.54Zm1.62.18a4.28,4.28,0,0,0,.67,2.54,2.16,2.16,0,0,0,1.85.91,2.35,2.35,0,0,0,2.25-1.39v-4.37a2.39,2.39,0,0,0-2.24-1.34,2.19,2.19,0,0,0-1.86.92A4.7,4.7,0,0,0,543.9,549Z" transform="translate(-12.61 -34.95)"/><path d="M558.36,551.15a1.19,1.19,0,0,0-.5-1,4.56,4.56,0,0,0-1.73-.63,8.69,8.69,0,0,1-2-.63,2.83,2.83,0,0,1-1.07-.88,2.14,2.14,0,0,1-.35-1.22,2.47,2.47,0,0,1,1-2,3.86,3.86,0,0,1,2.53-.81,4,4,0,0,1,2.62.83,2.67,2.67,0,0,1,1,2.14h-1.64a1.47,1.47,0,0,0-.56-1.15,2.16,2.16,0,0,0-1.43-.49,2.21,2.21,0,0,0-1.39.39,1.21,1.21,0,0,0-.5,1,1,1,0,0,0,.46.89,5.63,5.63,0,0,0,1.69.57,8.71,8.71,0,0,1,2,.65,2.9,2.9,0,0,1,1.12.91A2.29,2.29,0,0,1,560,551a2.42,2.42,0,0,1-1,2,4.32,4.32,0,0,1-2.65.77,4.92,4.92,0,0,1-2-.4,3.3,3.3,0,0,1-1.38-1.13,2.75,2.75,0,0,1-.49-1.57h1.62a1.68,1.68,0,0,0,.66,1.29,2.51,2.51,0,0,0,1.61.48,2.6,2.6,0,0,0,1.48-.37A1.15,1.15,0,0,0,558.36,551.15Z" transform="translate(-12.61 -34.95)"/><g id="Layer_7" data-name="Layer 7"><path d="M56.21,349.06c-9.63-6-21.56-1.26-28.34,6.89-9.16,11-8.59,28.95-7.93,42.4.44,9.06-.81,18.33-1.34,27.39s-1,18.25-1.55,27.36c-1.14,17.77-2.92,35.49-4.05,53.25-.88,13.93-.75,28.64,5.59,41.42,6.08,12.24,17.58,20.41,30.27,24.8,15.73,5.44,33,5.3,49.44,4.93,18.62-.41,37.21-2,55.84-2.27a272.94,272.94,0,0,1,30.26,1c6.11.58,11.42.82,16.71-2.74,9.73-6.56,13.86-18.89,26.18-21.8,2.65-.63,1.52-4.63-1.12-4.07-9.25,2-14.65,8.67-20.37,15.62-2.89,3.52-6.09,7.31-10.5,8.9-6,2.14-13.53,0-19.67-.3-32.8-1.59-65.48,3.81-98.27,2.4-14.9-.64-30.23-3.31-42.6-12.18C22,552.91,16.71,538.65,16,523.42c-.71-14.34,1.54-28.73,2.8-43,1.46-16.54,2.51-33.19,2.8-49.8.3-17.89-1.66-36.33,1-54.08,1.26-8.32,4.23-16.78,11-22.17,6-4.75,14.24-6.68,21.14-2.83a1.44,1.44,0,0,0,1.46-2.49Z" transform="translate(-12.61 -34.95)" style="fill:#86cbc8"/></g><path d="M219.76,539.53c4.4,3.15,9.63,5.43,14.39,8l-.31-2.44c-3.66,2.86-10.34,9.75-8.3,14.91a1.1,1.1,0,0,0,1.82.48c1.8-1.64,2.06-4.11,3.16-6.27a23.15,23.15,0,0,1,5.52-6.92,1.57,1.57,0,0,0-.31-2.45c-5-2.33-10-5.22-15.3-6.91-1-.32-1.44,1.06-.67,1.61Z" transform="translate(-12.61 -34.95)" style="fill:#86cbc8"/><path d="M58.09,456.55c-4.47-2.21-11.26-.86-16.06-.29s-10.41.77-14.67,3.3c-3.64,2.16-6.14,6.18-7.8,10-2,4.56-4.68,10.5-4,15.55.11.79,1.18.74,1.54.21,5-7.33,5.27-20.17,15.39-23,4.13-1.18,8.59-1.34,12.84-1.86,4-.5,9.18-.17,12.72-2.3a.89.89,0,0,0,0-1.52Z" transform="translate(-12.61 -34.95)" style="fill:#86cbc8"/><polyline points="557.92 527.5 557.92 530.26 555.17 530.26" style="fill:none;stroke:#86cbc8;stroke-miterlimit:10;stroke-width:2px"/><line x1="551.86" y1="530.26" x2="543.02" y2="530.26" style="fill:none;stroke:#86cbc8;stroke-miterlimit:10;stroke-width:2px;stroke-dasharray:0.02002439834177494,5.509701728820801,3.311828136444092,0"/><line x1="543.02" y1="530.26" x2="225.09" y2="530.26" style="fill:none;stroke:#86cbc8;stroke-miterlimit:10;stroke-width:2px;stroke-dasharray:5.519713878631592,3.301815986633301,0.02002439834177494,5.509701728820801,3.311828136444092,0"/><polyline points="225.09 530.26 222.33 530.26 222.33 527.5" style="fill:none;stroke:#86cbc8;stroke-miterlimit:10;stroke-width:2px"/><line x1="222.33" y1="524.38" x2="222.33" y2="516.02" style="fill:none;stroke:#86cbc8;stroke-miterlimit:10;stroke-width:2px;stroke-dasharray:0.018941139802336693,5.211643695831299,3.1326687335968018,0"/><line x1="222.33" y1="516.02" x2="222.33" y2="499.31" style="fill:none;stroke:#86cbc8;stroke-miterlimit:10;stroke-width:2px;stroke-dasharray:5.221114635467529,3.1231980323791504,0.018941139802336693,5.211643695831299,3.1326687335968018,0"/><polyline points="222.33 499.31 222.33 496.55 225.09 496.55" style="fill:none;stroke:#86cbc8;stroke-miterlimit:10;stroke-width:2px"/><line x1="228.39" y1="496.55" x2="237.23" y2="496.55" style="fill:none;stroke:#86cbc8;stroke-miterlimit:10;stroke-width:2px;stroke-dasharray:0.02002439834177494,5.509701728820801,3.311828136444092,0"/><line x1="237.23" y1="496.55" x2="555.17" y2="496.55" style="fill:none;stroke:#86cbc8;stroke-miterlimit:10;stroke-width:2px;stroke-dasharray:5.519713878631592,3.301815986633301,0.02002439834177494,5.509701728820801,3.311828136444092,0"/><polyline points="555.17 496.55 557.92 496.55 557.92 499.31" style="fill:none;stroke:#86cbc8;stroke-miterlimit:10;stroke-width:2px"/><line x1="557.92" y1="502.43" x2="557.92" y2="510.8" style="fill:none;stroke:#86cbc8;stroke-miterlimit:10;stroke-width:2px;stroke-dasharray:0.018941139802336693,5.211643695831299,3.1326687335968018,0"/><line x1="557.92" y1="510.8" x2="557.92" y2="527.5" style="fill:none;stroke:#86cbc8;stroke-miterlimit:10;stroke-width:2px;stroke-dasharray:5.221114635467529,3.1231980323791504,0.018941139802336693,5.211643695831299,3.1326687335968018,0"/></g><g id="step3"><g id="Step_2-2" data-name="Step 2"><path d="M464,55.63a2.66,2.66,0,0,0-1-2.23,13.75,13.75,0,0,0-3.69-1.64,25.18,25.18,0,0,1-4.22-1.7q-4.24-2.28-4.24-6.17A6,6,0,0,1,452,40.3a7.29,7.29,0,0,1,3.26-2.47,12.16,12.16,0,0,1,4.78-.89,11.26,11.26,0,0,1,4.75,1A7.65,7.65,0,0,1,468,40.63a7.2,7.2,0,0,1,1.15,4H464A3.38,3.38,0,0,0,462.94,42a4.45,4.45,0,0,0-3-.95,4.72,4.72,0,0,0-2.92.8,2.48,2.48,0,0,0-1,2.09,2.37,2.37,0,0,0,1.22,2,13.6,13.6,0,0,0,3.6,1.54,15.56,15.56,0,0,1,6.37,3.27,6.5,6.5,0,0,1,2,4.85,6,6,0,0,1-2.44,5.07,10.75,10.75,0,0,1-6.58,1.83,12.69,12.69,0,0,1-5.23-1,8.25,8.25,0,0,1-3.6-2.88,7.34,7.34,0,0,1-1.24-4.23h5.14q0,4.11,4.93,4.11a4.76,4.76,0,0,0,2.85-.74A2.43,2.43,0,0,0,464,55.63Z" transform="translate(-12.61 -34.95)" style="fill:#48a9a6"/><path d="M478.2,39.13v4.54h3.16v3.62H478.2v9.23a2.19,2.19,0,0,0,.39,1.47,2,2,0,0,0,1.5.45,7.9,7.9,0,0,0,1.46-.12v3.74a10.07,10.07,0,0,1-3,.44c-3.47,0-5.23-1.74-5.3-5.24v-10h-2.7V43.67h2.7V39.13Z" transform="translate(-12.61 -34.95)" style="fill:#48a9a6"/><path d="M492.62,62.5A9.08,9.08,0,0,1,486,60a8.88,8.88,0,0,1-2.56-6.65v-.48a11.17,11.17,0,0,1,1.08-5,8,8,0,0,1,3.05-3.38,8.61,8.61,0,0,1,4.51-1.19,7.71,7.71,0,0,1,6,2.39,9.75,9.75,0,0,1,2.18,6.79v2H488.45a4.57,4.57,0,0,0,1.45,2.91A4.35,4.35,0,0,0,493,58.52a5.33,5.33,0,0,0,4.46-2.07l2.42,2.72a7.34,7.34,0,0,1-3,2.45A9.86,9.86,0,0,1,492.62,62.5Zm-.56-15.19a3.08,3.08,0,0,0-2.39,1,5.12,5.12,0,0,0-1.17,2.85h6.87v-.4a3.66,3.66,0,0,0-.89-2.55A3.17,3.17,0,0,0,492.06,47.31Z" transform="translate(-12.61 -34.95)" style="fill:#48a9a6"/><path d="M519.67,53.09a11,11,0,0,1-1.94,6.84,6.18,6.18,0,0,1-5.23,2.57A5.78,5.78,0,0,1,508,60.56v8.71H503V43.67h4.58l.17,1.81a5.83,5.83,0,0,1,4.68-2.15,6.27,6.27,0,0,1,5.32,2.53,11.42,11.42,0,0,1,1.89,7Zm-4.93-.36a7.25,7.25,0,0,0-.92-4,3,3,0,0,0-2.66-1.4A3.23,3.23,0,0,0,508,49.12v7.57a3.28,3.28,0,0,0,3.23,1.83Q514.74,58.52,514.74,52.73Z" transform="translate(-12.61 -34.95)" style="fill:#48a9a6"/><path d="M536.27,47.53h2.63a3.72,3.72,0,0,0,2.79-.94,3.43,3.43,0,0,0,.9-2.49,3.07,3.07,0,0,0-.89-2.34,3.49,3.49,0,0,0-2.47-.84,3.65,3.65,0,0,0-2.38.78,2.48,2.48,0,0,0-1,2H531a6.06,6.06,0,0,1,1-3.49,7.12,7.12,0,0,1,2.94-2.42,9.85,9.85,0,0,1,4.17-.87,9.28,9.28,0,0,1,6.18,1.89,6.42,6.42,0,0,1,2.24,5.2,5.24,5.24,0,0,1-1,3.14,6.78,6.78,0,0,1-2.74,2.21,5.8,5.8,0,0,1,4.17,5.81,6.54,6.54,0,0,1-2.41,5.31,9.71,9.71,0,0,1-6.4,2,9.23,9.23,0,0,1-6.1-2,6.44,6.44,0,0,1-2.36-5.2h4.94a2.85,2.85,0,0,0,1,2.29,3.83,3.83,0,0,0,2.59.89,3.91,3.91,0,0,0,2.76-.93,3.23,3.23,0,0,0,1-2.47q0-3.72-4.11-3.72h-2.61Z" transform="translate(-12.61 -34.95)" style="fill:#48a9a6"/></g><path d="M117,415c15.65-1.8,30.22,1.52,45.64,3.36,12.91,1.53,24.39-1,34.52-9.47,8.47-7.06,17.74-17.16,20-28.35,1.82-8.87-1.19-17.66-3.64-26.1a158.88,158.88,0,0,1-6.7-44.06A112.65,112.65,0,0,0,202,277.83c-7.66-25.65-19.93-50.32-33.2-73.49a243.68,243.68,0,0,0-20.73-31c-3.82-4.77-8.61-10.82-15.21-9.4-2.22.47-1.28,3.86.93,3.39-1.31.28-.29-.1.69.63s1.78,1.25,2.63,1.92a57.38,57.38,0,0,1,6.72,6.69c6.78,7.51,12.09,16,17.44,24.58a349,349,0,0,1,33.51,69.19c3.53,10.09,7,20.9,7.93,31.61.58,7,.22,14,.86,21a149.11,149.11,0,0,0,3.19,20.14c2.16,9.4,6.16,18.66,7.24,28.28,1.12,10-3.7,18.32-9.92,25.74-5.34,6.36-11.51,12.49-19.19,15.93-6.37,2.85-13.28,3.31-20.15,2.75-16.15-1.33-31.4-5-47.76-3.26-1.52.16-1.53,2.57,0,2.39Z" transform="translate(-12.61 -34.95)" style="fill:#eb5e55"/><path d="M494.39,115.55c3.58,22-10,40.59-25.93,54.1-21.93,18.6-49.07,31.11-75.52,41.83-54.56,22.1-111.74,36-168.24,52-11,3.13-22.55,5.7-31.88,12.64-16.55,12.32-28.66,29.47-44.72,42.28-1.77,1.42.73,3.87,2.49,2.49,14.93-11.72,26.38-27.36,41.11-39.36,9.23-7.53,19.43-10.42,30.62-13.64,25.6-7.36,51.43-13.93,77-21.28,31.25-9,62.35-18.72,92.55-30.82,26.57-10.65,53.4-23,75.9-40.93,18.35-14.65,34.35-35.3,29.57-60.08-.38-2-3.3-1.12-3,.82Z" transform="translate(-12.61 -34.95)" style="fill:#48a9a6"/><path d="M146,307.36c1,4.65-4.38,13.28.31,16.8,2.15,1.62,5.68,1.83,8.28,1.95,2.84.14,6.61.25,9.18-1.12a1.57,1.57,0,0,0-.37-2.83,46.3,46.3,0,0,0-7.17-.34c-1.7,0-6.74.45-7.72-1.38-.74-1.38.49-5.55.65-7,.26-2.25.68-4.73.09-7s-3.71-1.21-3.25.9Z" transform="translate(-12.61 -34.95)" style="fill:#48a9a6"/><path d="M469,95.86v4h-2.35V88.49h4.44a5.17,5.17,0,0,1,2.25.47,3.48,3.48,0,0,1,1.5,1.33,3.72,3.72,0,0,1,.52,2,3.29,3.29,0,0,1-1.14,2.64,4.8,4.8,0,0,1-3.17,1Zm0-1.9h2.09a2,2,0,0,0,1.42-.44,1.6,1.6,0,0,0,.49-1.25,1.89,1.89,0,0,0-.5-1.35,1.85,1.85,0,0,0-1.36-.53H469Z" transform="translate(-12.61 -34.95)"/><path d="M481.57,93.53a6.19,6.19,0,0,0-.81-.06,1.66,1.66,0,0,0-1.68.87v5.53h-2.26V91.42H479l.06,1a2.09,2.09,0,0,1,1.88-1.16,2.24,2.24,0,0,1,.7.1Z" transform="translate(-12.61 -34.95)"/><path d="M487.32,99.87a2.44,2.44,0,0,1-.22-.76A2.74,2.74,0,0,1,485,100a3,3,0,0,1-2-.71,2.31,2.31,0,0,1-.82-1.82,2.4,2.4,0,0,1,1-2.06A5,5,0,0,1,486,94.7h1v-.48a1.41,1.41,0,0,0-.3-.94,1.2,1.2,0,0,0-.95-.35,1.33,1.33,0,0,0-.89.27.94.94,0,0,0-.33.75h-2.25a2.29,2.29,0,0,1,.45-1.36,3.07,3.07,0,0,1,1.28-1,4.78,4.78,0,0,1,1.86-.35,3.7,3.7,0,0,1,2.48.78,2.77,2.77,0,0,1,.92,2.21v3.67a4.13,4.13,0,0,0,.33,1.82v.13Zm-1.86-1.57a2,2,0,0,0,.92-.22,1.44,1.44,0,0,0,.62-.6V96h-.84c-1.13,0-1.73.4-1.81,1.18v.13a.91.91,0,0,0,.29.69A1.13,1.13,0,0,0,485.46,98.3Z" transform="translate(-12.61 -34.95)"/><path d="M494.52,98.2a1.47,1.47,0,0,0,1-.34,1.2,1.2,0,0,0,.41-.91h2.12a2.92,2.92,0,0,1-.47,1.57,3.08,3.08,0,0,1-1.26,1.11,4,4,0,0,1-1.77.39,3.66,3.66,0,0,1-2.86-1.15,4.55,4.55,0,0,1-1.05-3.18v-.15a4.54,4.54,0,0,1,1-3.12,3.63,3.63,0,0,1,2.85-1.16,3.54,3.54,0,0,1,2.54.9,3.18,3.18,0,0,1,1,2.4h-2.12a1.56,1.56,0,0,0-.41-1.07,1.51,1.51,0,0,0-2.22.16,3.35,3.35,0,0,0-.4,1.87v.23a3.32,3.32,0,0,0,.4,1.88A1.37,1.37,0,0,0,494.52,98.2Z" transform="translate(-12.61 -34.95)"/><path d="M502.05,89.34v2.08h1.45v1.65h-1.45v4.22a1,1,0,0,0,.18.67.89.89,0,0,0,.69.21,3.23,3.23,0,0,0,.66-.06v1.71a4.5,4.5,0,0,1-1.37.2,2.15,2.15,0,0,1-2.42-2.39V93.07h-1.23V91.42h1.23V89.34Z" transform="translate(-12.61 -34.95)"/><path d="M504.74,89.23a1.11,1.11,0,0,1,.34-.84,1.45,1.45,0,0,1,1.84,0,1.18,1.18,0,0,1,0,1.68,1.28,1.28,0,0,1-.92.33,1.3,1.3,0,0,1-.92-.33A1.11,1.11,0,0,1,504.74,89.23Zm2.4,10.64h-2.27V91.42h2.27Z" transform="translate(-12.61 -34.95)"/><path d="M512.51,98.2a1.48,1.48,0,0,0,1-.34,1.19,1.19,0,0,0,.4-.91h2.12a2.92,2.92,0,0,1-.47,1.57,3.08,3.08,0,0,1-1.26,1.11,4,4,0,0,1-1.77.39,3.66,3.66,0,0,1-2.86-1.15,4.55,4.55,0,0,1-1.05-3.18v-.15a4.54,4.54,0,0,1,1-3.12,3.66,3.66,0,0,1,2.85-1.16,3.58,3.58,0,0,1,2.55.9,3.21,3.21,0,0,1,1,2.4h-2.12a1.55,1.55,0,0,0-.4-1.07,1.53,1.53,0,0,0-2.23.16,3.44,3.44,0,0,0-.4,1.87v.23a3.32,3.32,0,0,0,.4,1.88A1.38,1.38,0,0,0,512.51,98.2Z" transform="translate(-12.61 -34.95)"/><path d="M521.23,100a4.16,4.16,0,0,1-3-1.14,4,4,0,0,1-1.17-3v-.21a5.09,5.09,0,0,1,.5-2.28,3.56,3.56,0,0,1,1.39-1.55,3.93,3.93,0,0,1,2.06-.54,3.49,3.49,0,0,1,2.73,1.09,4.48,4.48,0,0,1,1,3.1v.93h-5.39A2.14,2.14,0,0,0,520,97.7a2,2,0,0,0,1.4.5,2.44,2.44,0,0,0,2-.94l1.11,1.24a3.41,3.41,0,0,1-1.38,1.12A4.49,4.49,0,0,1,521.23,100ZM521,93.08a1.42,1.42,0,0,0-1.09.45,2.32,2.32,0,0,0-.53,1.31h3.14v-.18a1.69,1.69,0,0,0-.41-1.17A1.47,1.47,0,0,0,521,93.08Z" transform="translate(-12.61 -34.95)"/><polyline points="525.59 74.23 525.59 77.06 522.76 77.06" style="fill:none;stroke:#48a9a6;stroke-miterlimit:10;stroke-width:2px"/><line x1="519.61" y1="77.06" x2="511.18" y2="77.06" style="fill:none;stroke:#48a9a6;stroke-miterlimit:10;stroke-width:2px;stroke-dasharray:0.018641388043761253,5.25622034072876,3.1593246459960938,0"/><line x1="511.18" y1="77.06" x2="443.78" y2="77.06" style="fill:none;stroke:#48a9a6;stroke-miterlimit:10;stroke-width:2px;stroke-dasharray:5.265541076660156,3.1500039100646973,0.018641388043761253,5.25622034072876,3.1593246459960938,0"/><polyline points="443.78 77.06 440.95 77.06 440.95 74.23" style="fill:none;stroke:#48a9a6;stroke-miterlimit:10;stroke-width:2px"/><line x1="440.95" y1="70.96" x2="440.95" y2="62.21" style="fill:none;stroke:#48a9a6;stroke-miterlimit:10;stroke-width:2px;stroke-dasharray:0.019349750131368637,5.455953121185303,3.279376745223999,0"/><line x1="440.95" y1="62.21" x2="440.95" y2="44.72" style="fill:none;stroke:#48a9a6;stroke-miterlimit:10;stroke-width:2px;stroke-dasharray:5.465628147125244,3.2697019577026367,0.019349750131368637,5.455953121185303,3.279376745223999,0"/><polyline points="440.95 44.72 440.95 41.89 443.78 41.89" style="fill:none;stroke:#48a9a6;stroke-miterlimit:10;stroke-width:2px"/><line x1="446.93" y1="41.89" x2="455.36" y2="41.89" style="fill:none;stroke:#48a9a6;stroke-miterlimit:10;stroke-width:2px;stroke-dasharray:0.018641388043761253,5.25622034072876,3.1593246459960938,0"/><line x1="455.36" y1="41.89" x2="522.76" y2="41.89" style="fill:none;stroke:#48a9a6;stroke-miterlimit:10;stroke-width:2px;stroke-dasharray:5.265541076660156,3.1500039100646973,0.018641388043761253,5.25622034072876,3.1593246459960938,0"/><polyline points="522.76 41.89 525.59 41.89 525.59 44.72" style="fill:none;stroke:#48a9a6;stroke-miterlimit:10;stroke-width:2px"/><line x1="525.59" y1="47.99" x2="525.59" y2="56.74" style="fill:none;stroke:#48a9a6;stroke-miterlimit:10;stroke-width:2px;stroke-dasharray:0.019349750131368637,5.455953121185303,3.279376745223999,0"/><line x1="525.59" y1="56.74" x2="525.59" y2="74.23" style="fill:none;stroke:#48a9a6;stroke-miterlimit:10;stroke-width:2px;stroke-dasharray:5.465628147125244,3.2697019577026367,0.019349750131368637,5.455953121185303,3.279376745223999,0"/></g></svg>